<?xml version="1.0" standalone="no"?>
<!DOCTYPE svg PUBLIC "-//W3C//DTD SVG 1.1//EN" "http://www.w3.org/Graphics/SVG/1.1/DTD/svg11.dtd" >
<svg xmlns="http://www.w3.org/2000/svg">
<metadata>
This is a custom SVG webfont generated by Font Squirrel.
Copyright   : Copyright c 2010 by Marco Mller All rights reserved
Designer    : Marco Mller
Foundry     : Marco Mller
</metadata>
<defs>
<font id="MelbourneRegular" horiz-adv-x="862" >
<font-face units-per-em="2048" ascent="1536" descent="-512" />
<missing-glyph horiz-adv-x="430" />
<glyph unicode=" "  horiz-adv-x="430" />
<glyph unicode="&#x09;" horiz-adv-x="430" />
<glyph unicode="&#xa0;" horiz-adv-x="430" />
<glyph unicode="!" horiz-adv-x="421" d="M133 20v123l19 21h116q20 0 21 -21v-123l-19 -20h-116q-21 0 -21 20zM150 344v1069l18 21h80q20 0 20 -21v-1069l-20 -20h-80q-18 0 -18 20z" />
<glyph unicode="&#x22;" horiz-adv-x="555" d="M88 1495l18 21h93q20 0 20 -21l-24 -297l-21 -20h-39q-18 0 -20 20zM311 1495l19 21h92q20 0 20 -21l-24 -297l-21 -20h-39q-18 0 -20 20z" />
<glyph unicode="#" horiz-adv-x="1306" d="M45 279l18 77q6 16 21 17h240l77 327h-280q-20 -2 -17 19l19 76q6 16 20 16h285l70 293q2 16 20 16h86h8q2 0 6.5 -4t-2.5 -14l-69 -291h319l70 293q6 16 20 16h86q20 0 15 -20l-70 -289l260 2q18 0 18 -11q0 -3 -1 -7l-19 -78q-6 -16 -22 -17h-260l-78 -327h303 q23 0 16 -19l-18 -78q-6 -16 -23 -16h-305l-67 -276q-2 -16 -21 -17h-86q-20 0 -14 21l69 272h-319l-68 -276q-2 -16 -20 -17h-86q-18 0 -15 21l68 272h-238q-20 -1 -16 19zM444 373h320l78 327h-322z" />
<glyph unicode="$" horiz-adv-x="993" d="M90 387l21 21h86q18 0 18 -21q0 -250 219 -283v596l-127 66q-201 102 -201 338q0 143 92.5 233t235.5 107v135l19 20h77q20 0 21 -20v-133q152 -14 233.5 -103.5t102.5 -224.5q4 -20 -13 -26l-79 -21q-25 -8 -29 14q-23 207 -215 234v-543l166 -88q90 -47 138 -131 t48 -184q0 -156 -94 -264.5t-258 -122.5v-144l-19 -20h-77q-20 0 -21 20v144q-139 18 -241.5 115.5t-102.5 285.5zM231 1098q0 -150 113 -213l90 -51v485q-104 -16 -153.5 -79.5t-49.5 -141.5zM551 104q113 16 170 96.5t57 172.5q0 152 -157 233l-70 35v-537z" />
<glyph unicode="%" horiz-adv-x="1198" d="M119 981q0 -115 58.5 -186.5t160.5 -71.5q100 0 158.5 71.5t58.5 186.5v164q0 119 -54.5 188.5t-162.5 69.5q-111 0 -165 -69.5t-54 -188.5v-164zM221 995v135q0 82 33 126t84 44t83 -44t32 -126v-135q0 -82 -32 -124t-83 -42t-84 42t-33 124zM354 20l471 1397 q6 16 21 17h86q20 0 14 -21l-471 -1397q-6 -16 -20 -16h-86q-16 0 -16 12q0 3 1 8zM725 258q0 -115 58.5 -186.5t160.5 -71.5q100 0 158.5 71.5t58.5 186.5v164q0 119 -54 188.5t-163 69.5q-111 0 -165 -69.5t-54 -188.5v-164zM827 272v136q0 82 33 126t84 44t83 -43 t32 -127v-136q0 -82 -32 -124t-83 -42t-84 42t-33 124z" />
<glyph unicode="&#x26;" horiz-adv-x="1208" d="M76 336q0 197 147 326l146 129l-45 75q-51 92 -52 172q0 25 6 49q22 100 105.5 165t189.5 65q123 0 208 -70.5t85 -216.5q0 -20 -20 -20h-78q-18 0 -18 20q0 172 -172 172q-115 0 -165 -84q-20 -34 -21 -75q0 -60 44 -136l348 -542q33 33 50.5 48t49 30.5t64.5 15.5h43 q23 0 23 -21v-69q0 -23 -21 -23h-30q-63 -2 -117 -78q68 -100 97.5 -127.5t76.5 -27.5h37q20 0 20 -21v-69q0 -23 -20 -23h-45q-76 0 -125 38t-121 146l-47 -53q-72 -80 -130.5 -112.5t-146.5 -32.5q-170 0 -268 103.5t-98 246.5zM186 336q0 -94 74 -166t184 -72 q51 0 95.5 29t105.5 100l47 56l-262 413l-111 -98q-78 -72 -105.5 -121t-27.5 -141z" />
<glyph unicode="(" horiz-adv-x="608" d="M102 608v238q0 356 87 583.5t219 335.5q8 7 15 7l17 -9l52 -51q7 -7 7 -14q0 -9 -12 -19q-100 -80 -180 -279.5t-80 -533.5v-278q0 -334 80 -533.5t180 -279.5q11 -9 12 -18q0 -7 -7 -15l-52 -51q-9 -9 -17 -9l-15 7q-131 109 -218.5 336t-87.5 583z" />
<glyph unicode=")" horiz-adv-x="712" d="M133 -258q-7 7 -7 15q0 9 11 18q100 80 180 279.5t80 533.5v278q0 334 -79.5 533.5t-180.5 279.5q-11 9 -11 19q0 7 7 14l51 51q9 9 18 9l15 -7q131 -109 218 -336t87 -583v-238q0 -356 -87 -583.5t-218 -335.5q-8 -7 -15 -7l-18 9z" />
<glyph unicode="*" horiz-adv-x="600" d="M43 1409l12 43q0 2 2 4t10.5 6t16.5 4l147 -22l25 151q2 10 7 15.5t9 5.5h4h46q16 0 20 -21l25 -151l151 22q10 2 17.5 -1t9.5 -7v-4l14 -43q4 -16 -14 -27l-135 -69l65 -137q10 -23 -2 -29l-37 -27q-14 -8 -30 6l-109 117l-104 -119q-6 -8 -14 -9h-4q-4 0 -7 1l-2 2 l-37 27q-2 2 -3 4t-3 10t2 17l68 135l-138 73q-16 9 -12 23z" />
<glyph unicode="+" horiz-adv-x="643" d="M18 510v76q0 20 21 20h223v236l19 20h79q20 0 21 -20v-236h223l21 -18v-76q0 -20 -21 -20h-223v-236l-19 -20h-79q-20 0 -21 20v236h-223z" />
<glyph unicode="," horiz-adv-x="378" d="M123 143l18 21h117q22 0 22 -18q0 -5 -1 -11l-62 -330q-4 -18 -18 -20h-56q-20 0 -20 20v338z" />
<glyph unicode="." horiz-adv-x="346" d="M90 20v123l19 21h116q20 0 21 -21v-123l-19 -20h-116q-21 0 -21 20z" />
<glyph unicode="/" horiz-adv-x="671" d="M16 -51l521 1540q6 16 20 16h86q16 0 16 -12q0 -4 -2 -8l-520 -1540q-6 -16 -20 -17h-86q-16 0 -16 12q0 4 1 9z" />
<glyph unicode="0" horiz-adv-x="970" d="M123 416v604q0 197 90 312.5t272.5 115.5t272.5 -115.5t90 -312.5v-604q0 -190 -97.5 -310t-265.5 -120t-265 120t-97 310zM248 416q0 -162 64.5 -237t173 -75t173 75t64.5 237v604q0 309 -237.5 309t-237.5 -309v-604z" />
<glyph unicode="1" d="M72 20v80q0 18 22 19h275v1196h-162l-21 20v80q0 18 23 19h264q20 0 21 -21v-1294h274l23 -19v-80q0 -20 -21 -20h-678z" />
<glyph unicode="2" horiz-adv-x="903" d="M92 1092q0 158 91 257t251 99q190 0 280.5 -113.5t90.5 -279.5q0 -223 -152 -414l-374 -522h512l20 -19v-82q0 -18 -18 -18h-654l-18 18v80q0 20 18 43l393 547q90 115 119 190.5t29 176.5q0 123 -61.5 198.5t-186.5 75.5q-215 0 -215 -237l-20 -25h-86q-19 0 -19 25z " />
<glyph unicode="3" horiz-adv-x="946" d="M102 367l19 20h86q20 0 20 -20q0 -127 61.5 -195t172.5 -68q113 0 175 61.5t62 221.5q0 152 -60 222.5t-144 70.5h-48l-20 20v78q0 18 20 19h50q184 0 184 272q0 260 -217 260q-111 0 -162 -58.5t-51 -180.5l-21 -21h-86q-18 0 -18 21q0 168 92 263t246 95 q168 0 255 -101.5t87 -277.5q0 -301 -160 -334q59 -25 97 -66.5t54.5 -94t21.5 -93.5t5 -94q0 -188 -95 -294.5t-267 -106.5q-100 0 -175 37.5t-112 99t-54.5 122.5t-17.5 122z" />
<glyph unicode="4" horiz-adv-x="952" d="M51 367v96q0 23 17 55l417 895q6 8 12.5 13.5t10.5 7.5h4h172q20 0 21 -21v-952h124l21 -19v-80q0 -20 -23 -20h-122v-322l-19 -20h-86q-20 0 -20 20v322h-508q-21 5 -21 25zM184 461h396v854h-19l-377 -830v-24z" />
<glyph unicode="5" horiz-adv-x="915" d="M82 399l18 21h86q20 0 21 -21q0 -166 60.5 -229.5t183.5 -63.5q238 0 237 310v127q0 285 -237 284q-102 0 -173 -35.5t-71 -113.5l-21 -21h-86q-18 0 -18 21v735l18 21h617l20 -19v-80q0 -20 -20 -20h-510v-457q53 88 244 88q176 0 269 -114.5t93 -284.5v-131 q0 -190 -97.5 -309t-264.5 -119q-172 0 -270.5 108t-98.5 303z" />
<glyph unicode="6" horiz-adv-x="976" d="M123 416v604q0 207 101.5 317.5t267.5 110.5q168 0 265 -107.5t97 -267.5l-18 -24h-86q-20 0 -21 24q0 129 -65.5 192.5t-171.5 63.5q-113 0 -178.5 -68.5t-65.5 -240.5v-242q63 106 250 107q174 0 265 -114t91 -286v-69q0 -195 -97.5 -312.5t-279.5 -117.5 q-166 0 -260 120t-94 310zM248 416q0 -162 63.5 -237t165.5 -75q123 0 187.5 73t64.5 239v65q0 285 -229 285q-252 0 -252 -285v-65z" />
<glyph unicode="7" horiz-adv-x="825" d="M72 1333v82q0 18 18 19h2h2h2h2h2h2h2h2h3h2h2h2h2h2h2h2h2h2h2h2h2h2h2h2h2h2h2h2h3h2h2h2h2h2h2h2h2h2h2h2h2h2h2h2h2h2h2h2h2h3h2h2h2h2h2h2h2h2h2h2h2h2h2h2h2h2h2h2h2h2h3h2h2h2h2h2h2h2h2h2h2h2h2h2h2h2h2h2h2h2h2h3h2h2h2h2h2h2h2h2h2h2h2h2h2h2h2h2h2h2h2h2h3h2 h2h2h2h2h2h2h2h2h2h2h2h2h2h2h2h2h2h2h2h3h2h2h2h2h2h2h2h2h2h2h2h2h2h2h2h2h2h2h2h3h2h2h2h2h2h2h2h2h2h2h2h2h2h2h2h2h2h2h2h2h3h2h2h2h2h2h2h2h2h2h2h2h2h2h2h2h2h2h2h2h2h3h2h2h2h2h2h2h2h2h2h2h2h2h2h2h2h2h2h2h2h2h3h2h2h2h2h2h2h2h2h2h2h2h2h2h2h2h2h2h2h2h2h3h2h2h2 h2h2h2h2h2h2h2h2h2h2h2h2h2h2h2h2h2h3h2h2h2h2h2h2h2h2h2h2h2h2h2h2h2h2h2h2h2h3h2h2h2h2h2h2h2h2h2h2h2h2h2h2h2h2h2h2h2h2h3h2h2h2h2h2h2h2h2h2h2h2h2h2h2h2h2h2h2h21l18 -19v-104q0 -111 -61 -250l-438 -1041q-10 -20 -27 -20h-92q-25 0 -15 20l383 904q78 182 80 188 q43 102 43 203h-561z" />
<glyph unicode="8" horiz-adv-x="942" d="M102 387q0 291 179 369q-84 43 -122 134t-38 189q0 63 14.5 120.5t48 117t105 95.5t172.5 36q82 0 144.5 -24.5t98 -62.5t58 -89t30 -97.5t7.5 -95.5q0 -236 -158 -323q178 -78 178 -369q0 -61 -17.5 -124.5t-56 -129t-112.5 -106.5t-172.5 -41t-172 41t-112.5 106.5 t-56.5 129t-17.5 124.5zM227 387q0 -143 63.5 -213t170 -70t170 70t63.5 213q0 158 -63.5 235.5t-170 77.5t-170 -77.5t-63.5 -235.5zM246 1079q0 -262 215 -262q213 0 213 262q0 143 -56.5 196.5t-156.5 53.5q-215 0 -215 -250z" />
<glyph unicode="9" horiz-adv-x="942" d="M102 950v70q0 195 94.5 311.5t276.5 116.5q168 0 267.5 -120t99.5 -308v-604q0 -197 -98.5 -313.5t-270.5 -116.5q-166 0 -264 107.5t-98 268.5l18 25h86q20 0 20 -25q0 -129 66 -193.5t172 -64.5q117 0 180.5 80t63.5 232v246q-74 -111 -240 -111q-176 0 -274.5 114.5 t-98.5 284.5zM227 954q0 -143 64.5 -213.5t183.5 -70.5q113 0 176.5 71.5t63.5 204.5v74q0 309 -242 309q-121 0 -183.5 -71.5t-62.5 -237.5v-66z" />
<glyph unicode=":" horiz-adv-x="360" d="M102 20v123l19 21h117q20 0 20 -21v-123l-18 -20h-117q-21 0 -21 20zM102 649v123l19 21h117q20 0 20 -21v-123l-18 -20h-117q-21 0 -21 20z" />
<glyph unicode=";" horiz-adv-x="376" d="M119 649v123l18 21h117q20 0 20 -21v-123l-18 -20h-117q-20 0 -20 20zM119 143l18 21h117q22 0 22 -18q0 -5 -2 -11l-61 -330q-4 -18 -18 -20h-56q-20 0 -20 20v338z" />
<glyph unicode="&#x3c;" horiz-adv-x="667" d="M20 520v2v2v2v2v2v2v3v2v4v2v2v4v2v4v2v4v4v19q0 16 21 28l514 326q7 3 11 3q2 0 3 -1q4 -2 4 -8l2 -6v-99q0 -18 -20 -28l-420 -248l420 -248q20 -10 20 -29v-98q0 -2 -1 -5t-5 -9q-2 -3 -4 -3q-4 0 -10 5l-514 325q-20 14 -21 29v2z" />
<glyph unicode="=" horiz-adv-x="993" d="M133 365v75q0 20 21 21h686l20 -19v-75q0 -20 -20 -21h-686zM133 653v76q0 20 21 21h686l20 -19v-76q0 -20 -20 -20h-686z" />
<glyph unicode="&#x3e;" horiz-adv-x="667" d="M92 176v98q0 18 21 29l419 248l-419 248q-20 10 -21 28v99q0 2 1 5t5 9q2 3 5 3q4 0 10 -5l514 -326q20 -12 20 -28v-2v-2v-2v-3v-2v-2v-2v-2v-2v-2v-4v-2v-4v-2v-4v-2v-4v-2v-21q0 -14 -20 -29l-514 -325q-7 -3 -11 -3q-2 0 -4 1q-4 2 -4 8z" />
<glyph unicode="?" horiz-adv-x="765" d="M20 1149q12 299 330 299q166 0 250 -98.5t84 -253.5q0 -70 -24.5 -132.5t-49 -95t-86.5 -102.5q-113 -131 -112 -195v-227l-19 -20h-86q-20 0 -20 20v211q0 78 36.5 141.5t108.5 145.5q4 4 25.5 28.5l30 34.5t25.5 36t24.5 45.5t14.5 49t7 60.5q0 106 -51 169.5 t-162 63.5q-209 0 -209 -180l-20 -25h-78q-19 0 -19 25zM274 20v123l19 21h117q20 0 20 -21v-123l-18 -20h-117q-21 0 -21 20z" />
<glyph unicode="@" horiz-adv-x="1441" d="M-371 831l211 236l-211 109l15 4l671 190v105q0 4 1 11t12.5 19.5t31.5 12.5h93q31 0 47 -33l24 -55l131 36l25 7v-345v-10l-16 -18l10 -23l172 408q16 33 49 33h88q47 0 47 -43v-324l141 39l25 8v-27v-303v-16l-96 -102l586 165l24 7l-209 -238l209 -106l-14 -5 l-1012 -286l-25 -6v354l82 90l-278 -80l2 -170q0 -45 -45 -45h-60q-4 0 -12 1t-20.5 12.5t-12.5 31.5v127l-143 -39l-27 -8v2l-2 -2v27v317l97 105l-586 -166zM-311 868l577 164l49 51v267l-624 -179l178 -96zM-150 1188l3 6l6 2q4 0 4 -2l35 -74l-7 74q0 4 5 4l6 2 q2 2 6 -4l31 -66l-9 82q0 4 4 5l7 2q4 0 4 -5l8 -94l-4 -4l-10 -4q-4 0 -7 2l-26 57l6 -63l-2 -4l-12 -4q-4 0 -7 4zM-33 1126l2 97l2 4l13 4q2 0 4 -2l51 -84l-2 -4l-6 -2q-2 -2 -6 2l-15 24l-28 -8v-29q0 -4 -2 -4l-7 -2q-6 -2 -6 4zM-18 1171l22 7l-22 39v-3v-43z M18 1102l25 8q29 6 35 -20q4 -12 -4 -21q14 -2 18 -18q8 -31 -20 -39l-27 -6zM29 1239q-2 4 2 4l8 2q4 2 6 -2l49 -61l-20 69q-2 4 2 4l6 2q4 2 4 -2l27 -90q0 -4 -4 -6l-9 -2q-2 0 -4 2l-49 64l21 -70q0 -4 -5 -6h-6q-2 -2 -4 2zM35 1094l8 -27l8 2q16 4 15 18q-6 14 -19 9 zM45 1053l10 -31l13 2q14 6 12 23q-4 14 -23 10zM57 104v60q0 4 2 4h7q2 0 2 -2l12 -25l10 25l2 2h6q2 0 2 -4v-60q0 -2 -2 -2h-4q-2 0 -2 2v48l-8 -23l-2 -2h-4q-2 0 -4 2l-8 23l2 -48q0 -2 -5 -2h-4q-2 0 -2 2zM57 -8h76v28l74 -45l-74 -45v31h-76v31zM57 45v25h1352v-25 h-1352zM57 195v26h1352v-26h-1352zM88 1118l2 4l6 2q4 0 4 -2l17 -59q8 -25 22 -19q16 4 8 27l-16 59l4 5l4 2q4 0 6 -2l17 -60q12 -37 -19 -45q-29 -6 -41 29zM107 1262q0 4 4 4l8 2q2 2 4 -2l49 -62l-20 70q0 4 4 4l6 2q2 2 4 -2l24 -90q2 -4 -2 -6l-8 -2q-4 0 -6 2 l-49 61l20 -67q2 -4 -2 -7l-6 -2q-4 0 -4 4zM109 104l18 62l2 2h8q2 0 2 -2l17 -62l-2 -2h-4q-2 0 -3 2l-4 17h-20l-4 -17q0 -2 -4 -2h-4q-2 0 -2 2zM125 131h16l-8 27zM160 1137q-3 3 -3 4.5t3 1.5l8 2q4 0 6 -2l31 -43h2l4 53q0 4 4 4l6 2h2q2 0 2 -4l-8 -98q0 -4 -2 -4 l-6 -2q-4 0 -4 2v28q-2 0 -4 2zM166 582l27 8l122 35l146 41l307 86l31 8l88 26l143 41l148 41v303l-31 -8l-117 -33l-137 -40l-66 -19l-256 -72l-16 -4l-14 -4l-226 -63l-149 -43v-299v-4zM166 104v64h16q20 0 21 -21q0 -12 -10 -18l6 -14l4 -4h2l2 -2v-5q0 -2 -2 -2h-2 q-6 0 -13 9l-8 16h-6v-23l-2 -2h-6q-2 0 -2 2zM176 137h6q10 0 10.5 10.5t-10.5 10.5h-6v-21zM180 909l23 6v19zM203 1192v96l4 4l10 4q4 0 6 -2l49 -84l-2 -4l-6 -2q-2 0 -4 2l-14 25l-31 -8l2 -29l-2 -4l-8 -2h-2q-2 0 -2 4zM211 918l10 4v32l-10 -12v-24zM213 123v24 q0 20 20 21q18 0 19 -16q0 -2 -2 -2l-2 -3l-4 3q0 10 -10.5 10t-10.5 -13v-24q0 -12 10.5 -12t10.5 12l2 2h4q2 0 2 -2q0 -23 -19 -23q-20 0 -20 23zM215 1237l23 6l-23 39v-45zM229 924l13 4v47l-13 -12v-39zM238 1137q-3 7 -3 12q0 14 19 20q25 8 33 -16v-16l-8 -17v-10 l4 -10l-4 -6l-5 -2q-4 0 -6 4l-2 10q-4 10 0 16l6 15q2 6 0 12q-2 10 -14 8t-8 -16l-2 -4l-6 -2q-4 -2 -4 2zM244 4v2q0 4 2 4h35l2 -2v-4q0 -4 -2 -4h-13v-53l-2 -2h-4q-4 0 -4 2v53h-12zM250 928l10 4v63l-10 -12v-55zM264 123v24q0 20 19 21q20 0 20 -21v-24 q0 -23 -20 -23q-19 0 -19 23zM268 934l11 4v78l-11 -12v-70zM272 123q0 -12 10.5 -12t10.5 12v24q0 12 -10.5 12.5t-10.5 -12.5v-24zM272 1079q0 4 2 6l9 2q4 0 4 -4l2 -6q0 -4 -2 -6h-8q-4 -4 -5 2zM287 940l12 2v94l-12 -12v-84zM293 6q0 4 2 4h4q2 -2 2 -4v-18q4 4 10 4 q12 0 13 -17v-28q0 -2 -2 -2h-5q-2 0 -2 2v28q0 8 -6 9q-8 0 -8 -9v-28l-2 -2h-4q-2 0 -2 2v59zM305 946l10 2v76v23v6l-10 -9v-98zM305 891q0 4 4 6l8 2q4 0 7 -2l55 -70l-23 78q-2 4 2 6h7q6 2 6 -2l28 -100q0 -4 -4 -6l-10 -2q-2 0 -4 2l-55 69l22 -77q0 -4 -4 -4l-6 -3 h-2q-2 0 -2 5zM311 119v16q0 29 31 29q29 0 29 -29v-8q0 -29 -25 -29q-20 0 -20 17q0 12 12 14l10 2v4q0 6 -6 6t-6 -4l-2 -4h-4q-2 0 -2 4q0 12 14 12.5t14 -16.5v-16q0 -4 -2 -4h-4q-2 2 -2 4v6l-10 -2q-4 0 -4 -6t14 -6t14 18v8q0 20 -20 20.5t-20 -22.5v-14 q0 -18 18 -25l2 -2v-4q0 -2 -4 -2q-27 6 -27 33zM334 -20q0 12 16 12q14 0 15 -17v-28q0 -2 -3 -2h-4q-2 0 -2 2q-4 -4 -10 -4q-12 0 -12 14q0 10 12 12l10 4v4q0 6 -6 6.5t-6 -4t-4 -4.5h-2q-4 1 -4 5zM342 -43q0 -6 6 -6q8 0 8 8v6l-10 -4q-4 0 -4 -4zM346 729q-2 7 -2 13 q0 19 21 24q25 6 32 -14q4 -4 -2 -7l-2 -2q-6 0 -6 2q-6 12 -18 9q-12 -2 -11 -21l11 -35q2 -16 18 -12q12 2 10 21l2 4l7 2q2 2 4 -2q6 -29 -19 -37q-29 -10 -35 22zM377 -12q0 4 2 4h4q2 -2 2 -4q0 4 8 4q14 0 15 -17v-28l-2 -2h-5q-2 0 -2 2v28q0 8 -6 9q-8 0 -8 -9v-28 l-2 -2h-4q-2 0 -2 2v41zM381 104v64h31l4 -4v-2q0 -4 -4 -4h-21v-19h15l4 -2v-4q0 -2 -4 -2h-15v-27l-4 -2h-4q-2 0 -2 2zM393 920l53 14l7 -2l2 -6q0 -4 -4 -6l-39 -11l8 -32l29 8l6 -2l2 -6q2 -4 -4 -7l-29 -8l8 -33l41 11l4 -2l2 -7q2 -4 -2 -6l-55 -14zM410 774l2 4l4 2 q4 0 6 -4l8 -33l29 7l-8 34l2 4l6 3q4 2 4 -3l22 -83l-2 -5l-6 -2q-2 -2 -4 2l-10 39l-29 -8l10 -39l-2 -4l-6 -2q-4 0 -4 4zM420 6q0 4 2 4h4q2 -2 2 -4v-33l12 17l4 2h5l2 -4l-13 -15l15 -26v-2h-7q0 -2 -2 0l-12 22l-4 -6v-14l-2 -2h-4q-2 0 -2 2v59zM422 123v24 q0 20 18 21q20 0 21 -21v-24q0 -23 -21 -23q-18 0 -18 23zM430 123q0 -12 10 -12q12 0 13 12v24q0 12 -13 13q-10 0 -10 -13v-24zM451 1229l6 6l-6 16v-22zM459 987l10 4v228l-4 -5l-6 -6v-221zM459 -41l2 2h4q2 0 2 -4q0 -6 8 -6q4 0 4 6q0 4 -4 6l-6 4q-8 6 -8 13 q0 12 14 12q12 0 12 -10l-2 -5h-2q-2 0 -4 3q0 4 -4 4q-6 0 -6 -4q0 -2 4 -7l6 -4q10 -6 10 -12q0 -14 -14 -14q-16 0 -16 16zM471 940l53 16q4 0 6 -4l2 -6q0 -4 -4 -4l-39 -12l9 -31l30 8l4 -4l3 -6q2 -4 -5 -4l-28 -8l10 -33l39 10l6 -4l2 -6q0 -4 -4 -4l-55 -14z M473 104v64h16q20 0 21 -21q0 -12 -12 -18l8 -14q0 -4 4 -4h2l2 -2v-5q0 -2 -2 -2h-2q-8 0 -14 9l-7 16h-6v-23l-4 -2h-2q-4 0 -4 2zM477 993l12 4v244l-12 -12v-236zM483 137h6q10 0 10.5 10.5t-10.5 10.5h-6v-21zM496 999l12 2v261l-12 -13v-250zM496 709l2 90l2 4l12 2 q2 2 4 -2l47 -76q0 -4 -4 -6l-4 -2q-4 0 -6 2l-12 22l-27 -6v-26q0 -4 -4 -4l-6 -2h-2q-2 0 -2 4zM510 750l20 6l-20 37v-43zM516 1006l10 2v274l-10 -12v-264zM518 -12q0 2 4 2h2v4q0 16 15 16h2l2 -2v-4q0 -2 -2 -2h-2q-6 0 -7 -8v-4h9q2 0 2 -2v-2q0 -4 -2 -4h-9v-35 l-2 -2h-4q-2 0 -2 2v35h-2q-4 0 -4 4v2zM524 102v66h33l4 -4v-2q0 -4 -2 -4h-24v-19h16l4 -2v-4q0 -2 -4 -2h-16v-20h22l4 -2v-5q0 -2 -2 -2h-35zM530 1411l29 -65l94 98zM535 1010l12 4v289l-12 -13v-280zM547 -27q0 18 16.5 18.5t16.5 -18.5v-14q0 -16 -16.5 -16t-16.5 16 v14zM549 963l31 8q31 8 41 -27l10 -39q12 -35 -23 -43l-30 -8zM553 1016l12 2v303l-12 -10v-295zM553 817l22 6q25 6 35 -20q2 -20 -8 -29l14 -18q2 -4 9 -4h2l4 -2l2 -7q0 -2 -4 -4h-2q-12 -2 -23 9l-14 20l-10 -2l10 -33l-4 -6h-4q-4 -2 -7 2zM557 -27v-14q0 -8 6 -8 q8 0 8 8v14q0 10 -8 11q-6 -1 -6 -11zM567 809l8 -31l11 2q16 4 10 21q-2 14 -18 10zM567 952l23 -80l14 5q18 6 12 24l-10 39q-6 20 -22 16zM569 164l2 4h4l3 -2l12 -53h2l12 53l2 2h4l2 -4l-14 -60l-2 -2h-8q-4 0 -4 2zM573 1026l11 12v305l-11 -12v-305zM590 -12q0 4 2 4 h4q2 -2 2 -4q4 4 10 4l2 -2v-4q0 -2 -2 -2q-10 0 -10 -9v-28l-2 -2h-4q-2 0 -2 2v41zM592 1047l10 12v303l-10 -10v-305zM610 1067l13 12v305l-13 -12v-305zM623 102v66h32l4 -4v-2q0 -4 -4 -4h-24v-19h18l4 -2v-4q0 -2 -4 -2h-18v-20h24l4 -2v-5q0 -2 -4 -2h-32zM631 1087 l10 13v303l-10 -12v-304zM633 -12q0 4 4 4h2q4 0 4 -4v-29q0 -8 6 -8q8 0 8 8v29l2 4h5q2 0 2 -4v-41q0 -2 -2 -2h-2q-4 0 -5 2q-4 -4 -8 -4q-16 0 -16 16v29zM639 748v90l4 4l10 2q2 2 4 -2l48 -78l-3 -4l-6 -2q-4 0 -4 2l-14 24l-27 -8v-26q0 -4 -2 -5l-6 -2q-4 1 -4 5z M649 1108l8 10l2 2v2v21v280l-10 -10v-305zM651 791l21 4l-21 36v-40zM666 989q-2 4 4 6l8 2q4 2 6 -2l29 -34l6 45l4 4l8 2q4 2 6 -2l27 -101q2 -4 -2 -4l-6 -2q-6 -2 -6 2l-21 78l-4 -39l-2 -4l-8 -2q-4 0 -6 2l-25 31l25 -76q0 -6 -4 -6l-7 -2q-4 0 -6 4zM670 104v64h16 q20 0 21 -21q0 -12 -11 -18l6 -14l5 -4h2l2 -2v-5q0 -2 -2 -2h-2q-10 0 -13 9l-8 16h-6v-23l-2 -2h-6q-2 0 -2 2zM676 -41l2 2h2q4 0 4 -4q0 -6 6 -6t6 6q0 4 -4 6l-8 4q-6 4 -6 13q0 12 12 12t15 -10l-3 -5h-2q-4 0 -4 3q0 4 -6 4q-4 0 -4 -4.5t4 -6.5l6 -4q8 -4 9 -12 q0 -14 -14.5 -14t-14.5 16zM680 330l14 14v303l-14 -16v-301zM680 137h6q10 0 10 10.5t-10 10.5h-6v-21zM686 307l963 273l-179 98l181 207l-578 -164l-43 -47v-199q0 -4 -1 -12t-13 -20.5t-33 -12.5h-57q-4 0 -12.5 1t-20.5 12.5t-12 31.5v39zM700 827q-2 7 -2 13 q0 18 21 22q23 8 33 -14q0 -2 -2 -4l-5 -2q-4 -2 -6 0q-4 14 -16 10q-16 -6 -10 -23l8 -32q6 -16 20 -15q14 6 9 21l4 6h4q4 2 6 -2q6 -29 -21 -37q-25 -6 -34 23zM702 352l11 13v303l-11 -13v-303zM715 104l18 62l2 2h8q2 0 2 -2l19 -62l-2 -2h-6l-2 2l-4 17h-21l-4 -17 l-2 -2h-4q-4 0 -4 2zM717 2v4q0 4 2 4h4q4 0 4 -4v-4q0 -2 -4 -2h-4q-2 0 -2 2zM717 -12l2 4h4q2 0 2 -4v-41q0 -2 -2 -2h-4q-2 0 -2 2v41zM721 373l10 12v303l-10 -12v-303zM731 131h17l-9 27zM737 -12q0 4 2 4h4q2 -2 2 -4q0 4 9 4q14 0 14 -17v-28q0 -2 -2 -2h-4 q-2 0 -2 2v28q0 8 -6 9q-8 0 -9 -9v-28l-2 -2h-4q-2 0 -2 2v41zM739 393l11 13v303l-11 -13v-303zM758 414l12 12v303l-12 -12v-303zM758 864v4q-2 4 2 6l47 13l4 -2l2 -6q2 -4 -2 -5l-18 -6l20 -73l-2 -4l-6 -3q-2 -2 -4 3l-21 75l-16 -4zM766 985q-2 8 -2 14q0 24 24 31 q33 8 43 -26l11 -41q10 -33 -23 -43q-33 -12 -41 26zM774 104v60q0 4 2 4h6q2 0 2 -2l21 -47l-2 45q0 4 4 4h4q2 0 2 -4v-60q0 -2 -2 -2h-6q-2 0 -2 2l-21 48v-48q0 -2 -2 -2h-4q-2 0 -2 2zM778 434l10 12v291l-10 -4v-299zM780 -61q0 2 2 2h2q4 0 4 -2q0 -6 9 -7q6 0 6 9v6 q-4 -4 -8 -4q-14 0 -15 16v16q0 16 15 17q4 0 8 -4v2l2 2h4l2 -2v-49q0 -16 -14 -17q-17 1 -17 15zM780 989l13 -39q6 -23 22 -16q18 4 12 24l-12 41q-6 20 -22 17q-15 -7 -13 -27zM788 -25v-16q0 -8 7 -8q8 0 8 8v16q0 8 -8 9q-7 -1 -7 -9zM797 455l12 10v278l-12 -4v-284z M815 475l12 12v261l-12 -3v-270zM823 891l47 14l4 -4l3 -4q0 -4 -3 -6l-34 -8l8 -27l24 6l5 -2l2 -6q2 -2 -2 -4l-27 -6l8 -29l35 10l4 -4l2 -4q0 -4 -4 -4l-45 -12zM827 102v66h19q18 0 18 -23v-22q0 -20 -18 -21h-19zM836 496l10 12v246l-10 -4v-254zM836 1096l57 16 l2 131zM836 111h10q10 0 10 12v22q0 12 -10 13h-10v-47zM842 1042l26 9q33 8 43 -23q6 -25 -10 -37l17 -20q6 -6 10 -6l2 2l6 -4l2 -5q2 -6 -4 -6l-2 -2q-12 -2 -27 13l-18 22l-12 -4l12 -39l-4 -4l-6 -2q-4 -2 -7 4zM846 6q0 4 4 4h4q2 0 4 -2l10 -24l11 24l2 2h6q4 0 4 -4 v-59q0 -2 -4 -2h-4q-2 0 -2 2v47l-9 -23q0 -2 -2 -2h-4q-2 0 -2 2l-10 23l2 -47q0 -2 -4 -2h-2q-4 0 -4 2v59zM854 516l10 12v230l-10 -2v-240zM862 1032l8 -35l13 2q18 6 12 25q-2 16 -20 12zM872 537l9 8l2 123l2 20v8v68l-13 -2v-225zM877 123v24q0 20 20 21q14 0 18 -16 q0 -2 -2 -2l-4 -3q-2 3 -4 3q0 10 -8 10q-10 0 -10 -13v-24q0 -12 10 -12t10 12l2 2h4q2 0 2 -2q0 -23 -18 -23q-20 0 -20 23zM891 909l22 6q25 8 35 -18q6 -20 -10 -31l16 -18q4 -4 9 -4l2 2l4 -4l2 -4q0 -4 -4 -4l-2 -3q-8 -2 -23 11l-14 18l-10 -2l8 -33l-2 -4l-4 -2 q-4 -2 -7 2zM901 -25q0 16 17 17q14 0 14 -15v-6q0 -4 -4 -4l-19 -4v-4q0 -8 6 -8q8 0 9 8l4 2h2q2 0 2 -4q0 -14 -17 -14q-14 0 -14 16v16zM905 901l8 -31l11 2q16 6 10 21q-2 14 -19 10zM909 -25v-4l15 2v4q0 6 -6 7q-9 -1 -9 -9zM926 123v24q0 20 20 21q18 0 19 -21v-24 q0 -23 -19 -23q-20 0 -20 23zM926 1065l55 16q4 0 6 -4v-6q2 -4 -2 -4l-39 -12l8 -31l29 8l6 -4l2 -6q0 -4 -4 -4l-29 -8l9 -33l39 10l6 -2l2 -6q2 -4 -2 -6l-56 -15zM934 123q0 -12 12 -12q10 0 10 12v24q0 12 -10 13q-12 0 -12 -13v-24zM944 6l2 4h4q2 0 2 -4v-47 q0 -8 6 -8h3l2 -2v-4q0 -2 -2 -2h-3q-14 0 -14 16v47zM963 905q-1 5 -2 9q0 16 20 22q27 6 33 -14q4 -4 -2 -7l-4 -2q-4 0 -7 2q-6 12 -16 7q-10 -2 -10 -13q4 -8 8 -10l27 -6q14 0 18 -16q6 -25 -20 -35q-27 -6 -35 20l4 4l4 2q4 0 6 -2q2 -14 17 -10q12 2 12 16 q-4 8 -12 9l-21 6q-14 2 -20 18zM969 6q0 4 2 4h4q2 -2 2 -4v-18q4 4 8 4q14 0 14 -17v-16q0 -16 -14 -16q-4 0 -8 4l-2 -2h-4q-2 0 -2 2v59zM977 -25v-16q0 -8 8 -8q6 0 6 8v16q0 8 -6 9q-8 -1 -8 -9zM977 125v39l2 4h4q2 0 2 -4v-39q0 -14 10.5 -14t10.5 14v39l4 4h2 q4 0 4 -4v-39q0 -25 -21 -25q-18 0 -18 25zM1010 -27q0 18 16 19q14 0 14 -19v-14q0 -16 -14 -16q-16 0 -16 16v14zM1018 -27v-14q0 -8 8 -8q6 0 6 8v14q0 10 -6 11q-8 -1 -8 -11zM1024 922q-1 5 -1 9q0 16 17 21q5 1 9 2q15 0 22 -18q0 -10 -2 -16l-6 -15v-8l2 -10l-2 -6 h-4q-4 -2 -6 2l-2 10q-4 8 0 14l6 15q2 4 0 10q-2 10 -15 8q-10 -2 -6 -16l-2 -4l-6 -2q-4 0 -4 4zM1028 104v60q0 4 2 4h6q2 0 2 -2l21 -47v45q0 4 2 4h4q2 0 2 -4v-60q0 -2 -2 -2h-6q-2 0 -4 2l-19 48v-48q0 -2 -2 -2h-4q-2 0 -2 2zM1030 705l4 4l2 2v96l-6 -2v-76v-20v-4 zM1044 721l11 10v82l-11 -4v-88zM1051 -12l2 4h4q2 0 2 -4v-29q0 -8 8 -8t8 8v29q0 4 2 4h4q2 -2 2 -4v-41l-2 -2h-4q-2 0 -2 2q-4 -4 -10 -4q-14 0 -14 16v29zM1057 868q0 4 2 4l6 2q6 0 6 -4v-6q2 0 -2 -4l-6 -2q-4 0 -4 4zM1063 739l12 13v65l-12 -2v-76zM1067 682l2 6 l6 2q4 0 4 -2l37 -74l-6 74q-2 4 2 4l6 2q4 0 6 -4l33 -65l-8 82l2 4l8 2h2q2 0 2 -4l8 -95l-4 -6l-12 -2q-2 -2 -4 2l-29 60l9 -66l-5 -6l-12 -2q-2 -2 -4 2zM1077 162v2q0 4 2 4h35l2 -4v-2q0 -4 -2 -4h-12v-54l-4 -2h-4q-2 0 -2 2v54h-13zM1081 762l13 10v51l-13 -2v-59z M1094 -12l2 4h4q2 0 2 -4q4 4 10 4q14 0 14 -17v-28q0 -2 -4 -2h-2q-4 0 -4 2v28q0 8 -6 9q-8 0 -8 -9v-28q0 -2 -2 -2h-4q-2 0 -2 2v41zM1102 780l10 13v36l-10 -4v-45zM1106 561q-2 4 2 6l8 2q4 0 6 -2l27 -32l4 41l4 4l8 2q4 2 6 -2l25 -91q2 -6 -2 -6l-6 -2q-4 0 -6 4 l-19 70l-4 -35q0 -4 -2 -4l-6 -2q-4 0 -4 2l-23 29l21 -72q2 -2 -4 -4l-4 -2q-4 -2 -6 4zM1120 803l13 10v21l-13 -3v-28zM1126 104v60l2 4h5q2 0 2 -4v-60l-2 -2h-5q-2 0 -2 2zM1137 -12q0 4 4 4h2q4 0 4 -4q4 4 8 4l4 -2v-4q-2 -2 -4 -2q-8 0 -8 -9v-28q0 -2 -4 -2h-2 q-4 0 -4 2v41zM1141 821l16 21l-16 -6v-15zM1147 104v60q0 4 2 4h6q2 0 4 -2l19 -47v45q0 4 2 4h4q2 0 2 -4v-60q0 -2 -2 -2h-6q-2 0 -2 2l-21 48v-48q0 -2 -2 -2h-4q-2 0 -2 2zM1161 -25q0 16 16.5 16.5t16.5 -14.5v-6q0 -4 -4 -4l-19 -4v-4q0 -8 7 -8q8 0 8 8l2 2h2 q4 0 4 -4q0 -14 -16.5 -14t-16.5 16v16zM1171 -25v-4l15 2v4q0 6 -8 7q-7 -1 -7 -9zM1176 719l24 6q33 8 39 -20q4 -20 -8 -33l16 -19q2 -6 8 -6l2 2l7 -4v-4q2 -4 -2 -6h-2q-12 -4 -25 8l-18 23l-11 -4l11 -35l-3 -4l-6 -2q-4 -2 -6 2zM1190 590l49 14l6 -4l2 -4 q0 -4 -4 -6l-37 -10l11 -29l26 8l4 -4l2 -4q2 -4 -2 -6l-28 -8l10 -29l35 10l6 -4l2 -4q0 -4 -4 -6l-49 -15zM1194 709l8 -33l12 4q16 4 11 20q-2 16 -21 13zM1198 123v24q0 20 21 21q14 0 18 -16q0 -2 -2 -2l-4 -3q-2 0 -2 1q0 2 -2 2q0 10 -8 10q-10 0 -11 -13v-24 q0 -12 10.5 -12t10.5 12v4h-10l-2 2v4q0 2 2 2h16q2 0 2 -2v-10q0 -23 -18 -23q-21 0 -21 23zM1204 8h10l-2 -47h-6zM1204 -51q0 6 4 6q6 0 6 -6t-6 -6q-4 0 -4 6zM1245 104v5l2 2h6q2 0 2 -2v-5l-2 -2h-6q-2 0 -2 2zM1253 735l4 6l5 2q4 0 6 -4l26 -90l-4 -6l-6 -2 q-4 0 -4 4zM1257 -25l74 45v-28h78v-31h-78v-31zM1262 606l2 4l6 2q4 2 6 -4l18 -67l-2 -4l-6 -2q-4 -2 -6 2zM1264 123v24q0 20 20 21q18 0 19 -16q0 -2 -3 -2l-2 -3l-4 3q0 10 -10 10t-10 -13v-24q0 -12 10 -12t10 12l2 2h4q2 0 3 -2q0 -23 -19 -23q-20 0 -20 23z M1280 743q-2 4 2 5l51 14l6 -2v-6q2 -4 -2 -4l-18 -7l22 -81l-2 -5l-6 -2q-4 0 -6 2l-22 82l-19 -4l-4 2zM1284 520q0 2 4 6l6 2q2 0 6 -4l3 -6q0 -2 -5 -6h-6q-2 -2 -6 2zM1313 123v24q0 20 20.5 20.5t20.5 -20.5v-24q0 -23 -20.5 -23t-20.5 23zM1323 123q0 -12 10 -12 t10 12v24q0 12 -10 12.5t-10 -12.5v-24zM1352 768l51 14l4 -2l2 -6q2 -4 -2 -6l-37 -10l8 -29l27 8l4 -4l2 -4q2 -4 -2 -6l-27 -8l9 -29l34 10l7 -2l2 -6q0 -4 -2 -6l-52 -14zM1366 104v60q0 4 2 4h6q2 0 2 -2l10 -25l11 25l4 2h4q4 0 4 -4v-60q0 -2 -4 -2h-2q-4 0 -4 2 l2 48l-8 -23l-2 -2h-7q-2 0 -2 2l-8 23v-48q0 -2 -2 -2h-4q-2 0 -2 2z" />
<glyph unicode="A" horiz-adv-x="1200" d="M94 14l395 1399l23 21h180q18 0 25 -21l389 -1399q2 -6 -1 -10t-7 -4h-4h-101q-12 0 -18 20l-148 519h-450l-152 -519q-6 -20 -18 -20h-101h-4q-2 0 -6 4t-2 10zM408 659h389l-172 656h-37z" />
<glyph unicode="B" horiz-adv-x="1044" d="M164 0v1434h340q199 0 298 -101.5t99 -269.5q0 -127 -63.5 -207t-132.5 -90q238 -55 237 -348q0 -174 -104.5 -296t-311.5 -122h-362zM289 1315v-502h180q145 0 226 64.5t81 185.5q0 252 -272 252h-215zM289 119h237q133 0 212 76.5t79 218.5q0 162 -81 223t-228 61h-219 v-579z" />
<glyph unicode="C" horiz-adv-x="1069" d="M143 434v563q0 203 106.5 327t303.5 124q180 0 275.5 -91t117.5 -241q4 -20 -12 -26l-80 -21q-8 -4 -17.5 0t-11.5 14q-12 115 -81.5 180.5t-190.5 65.5q-147 0 -216 -80t-69 -252v-563q0 -172 69 -251t216 -79q279 0 278 330l19 21h86q20 0 20 -21q0 -203 -98 -325.5 t-305 -122.5q-197 0 -303.5 122.5t-106.5 325.5z" />
<glyph unicode="D" horiz-adv-x="1103" d="M164 0v1434h393q207 0 305.5 -123t98.5 -326v-536q0 -203 -98.5 -326t-305.5 -123h-393zM289 119h268q279 0 279 330v536q0 330 -279 330h-268v-1196z" />
<glyph unicode="E" horiz-adv-x="1030" d="M164 0v1434h723l20 -19v-82q0 -18 -18 -18h-600v-535h454l21 -18v-82q0 -18 -19 -18h-456v-543h598l20 -19v-82q0 -18 -18 -18h-725z" />
<glyph unicode="F" horiz-adv-x="989" d="M164 20v1414h682l20 -19v-82q-2 -18 -20 -18h-557v-535h413l21 -18v-82q-2 -18 -21 -18h-413v-642l-21 -20h-84q-20 0 -20 20z" />
<glyph unicode="G" horiz-adv-x="1058" d="M123 436v563q0 205 99.5 327t295.5 122q180 0 275.5 -90t117.5 -240q4 -20 -12 -26l-80 -21q-25 -6 -28 14q-41 244 -273 244q-145 0 -207.5 -77.5t-62.5 -252.5v-563q0 -172 68.5 -252t215.5 -80q279 0 279 332v127h-309l-21 19v80q0 20 21 20h413q20 0 21 -20v-226 q0 -203 -98.5 -326.5t-305.5 -123.5q-197 0 -303 123.5t-106 326.5z" />
<glyph unicode="H" horiz-adv-x="1140" d="M164 20v1393l18 21h86q20 0 21 -21v-610h563v610l18 21h86q20 0 21 -21v-1393l-19 -20h-86q-20 0 -20 20v664h-563v-664l-19 -20h-86q-20 0 -20 20z" />
<glyph unicode="I" horiz-adv-x="452" d="M164 20v1393l18 21h86q20 0 21 -21v-1393l-19 -20h-86q-20 0 -20 20z" />
<glyph unicode="J" horiz-adv-x="716" d="M92 6v80q0 20 21 20q135 0 235.5 77t100.5 253v977l18 21h86q20 0 20 -21v-977q0 -193 -128 -320.5t-332 -127.5z" />
<glyph unicode="K" horiz-adv-x="1116" d="M164 20v1393l18 21h86q20 0 21 -21v-692l491 692q10 20 29 21h98q2 0 5 -1t9.5 -5.5t-1.5 -14.5l-418 -604l319 -567q74 -129 150 -129h33l20 -21v-69q0 -23 -20 -23h-46q-80 0 -136 48t-124 163l-284 491l-125 -178v-504l-19 -20h-88q-18 0 -18 20z" />
<glyph unicode="L" horiz-adv-x="876" d="M164 0v1413l18 21h86q20 0 21 -21v-1294h475l20 -19v-80q0 -20 -20 -20h-600z" />
<glyph unicode="M" horiz-adv-x="1241" d="M164 20v1393q0 20 20 21h127q18 0 29 -21l283 -663l278 663q10 20 29 21h127q20 0 20 -21v-1393q0 -20 -20 -20h-84q-20 0 -21 20l11 1264l-265 -659q-8 -20 -22 -21h-98q-16 0 -25 21l-272 659l8 -1264q0 -20 -21 -20h-84q-20 0 -20 20z" />
<glyph unicode="N" horiz-adv-x="1159" d="M164 20v1393q0 20 20 21h131q18 0 29 -21l537 -1263l-11 1263q0 20 21 21h84q20 0 20 -21v-1393q0 -20 -20 -20h-131q-18 0 -29 20l-536 1264l10 -1264q0 -20 -21 -20h-84q-20 0 -20 20z" />
<glyph unicode="O" horiz-adv-x="1101" d="M143 434v563q0 203 99.5 327t308.5 124t308 -124t99 -327v-563q0 -201 -99 -324.5t-308 -123.5t-308.5 123.5t-99.5 324.5zM268 434q0 -330 283 -330t283 330v563q0 168 -74 250t-209 82t-209 -82t-74 -250v-563z" />
<glyph unicode="P" horiz-adv-x="1040" d="M164 20v1414h321q211 0 311.5 -115t100.5 -313v-54q0 -199 -100.5 -313.5t-311.5 -114.5h-196v-504l-19 -20h-86q-20 0 -20 20zM289 643h196q287 0 287 309v54q0 309 -287 309h-196v-672z" />
<glyph unicode="Q" horiz-adv-x="1146" d="M143 434v563q0 203 99.5 327t308.5 124t308 -124t99 -327v-563q0 -186 -79 -301q29 -20 71 -20h33l21 -21v-69q0 -23 -21 -23h-45q-82 0 -141 53q-96 -68 -246 -67q-209 0 -308.5 123.5t-99.5 324.5zM268 434q0 -330 283 -330q102 0 168 46q-18 27 -37 61l-49 86 q-4 10 0 14t12 4l8 2h78q20 0 29 -14l35 -63q39 82 39 194v563q0 168 -74 250t-209 82t-209 -82t-74 -250v-563z" />
<glyph unicode="R" horiz-adv-x="1110" d="M166 20v1414h289q240 0 348 -105.5t108 -281.5v-43q0 -317 -266 -392l182 -370q74 -129 150 -129h20l21 -21v-69q0 -23 -21 -23h-32q-80 0 -136.5 47t-123.5 164l-185 385h-229v-576l-19 -20h-86q-20 0 -20 20zM291 715h182q160 0 236.5 62.5t76.5 226.5v43 q0 268 -321 268h-174v-600z" />
<glyph unicode="S" horiz-adv-x="995" d="M90 387l21 21h86q18 0 18 -21q0 -156 82 -219.5t197 -63.5q141 0 212.5 82t71.5 187q0 152 -157 233l-314 160q-201 102 -201 338q0 160 111 252t277 92q180 0 275 -90t118 -240q4 -20 -13 -26l-79 -21q-25 -8 -29 14q-27 238 -272 238q-135 0 -199 -67.5t-64 -157.5 q0 -154 113 -213l373 -197q90 -47 138 -131t48 -184q0 -170 -109.5 -278.5t-299.5 -108.5q-51 0 -103.5 11t-108 41t-97.5 74t-68.5 114.5t-26.5 160.5z" />
<glyph unicode="T" horiz-adv-x="985" d="M82 1333v80q0 20 20 21h781l20 -19v-80q0 -20 -20 -20h-328v-1295l-18 -20h-86q-20 0 -21 20v1295h-328z" />
<glyph unicode="U" horiz-adv-x="1073" d="M133 506v907l21 21h86q18 0 18 -21v-907q0 -401 278.5 -401.5t278.5 401.5v907l19 21h86q20 0 20 -21v-907q0 -227 -98.5 -373.5t-305 -146.5t-305 146.5t-98.5 373.5z" />
<glyph unicode="V" horiz-adv-x="1095" d="M84 1413q-1 4 -1 8q0 11 15 13h92q16 0 23 -21l328 -1307h20l313 1307q6 20 23 21h100l15 -21l-348 -1393q-6 -20 -25 -20h-182q-18 0 -23 20z" />
<glyph unicode="W" horiz-adv-x="1542" d="M94 1413q-1 4 -1 8q0 11 16 13h94q16 0 22 -21l217 -1307h29l231 1201q6 20 23 20h92q16 0 23 -20l231 -1201h29l217 1307q6 20 22 21h95l14 -21l-248 -1393l-22 -20h-185q-18 0 -24 20l-199 1076l-197 -1076q-4 -20 -24 -20h-184q-18 0 -23 20z" />
<glyph unicode="X" horiz-adv-x="1169" d="M96 20l418 764l-346 629q-10 20 14 21h94q16 0 27 -21l285 -520l284 520q10 20 27 21h94q25 0 15 -21l-353 -643l418 -750q3 -6 3 -10q0 -10 -17 -10h-94q-16 0 -27 20l-356 639l-351 -639q-10 -20 -26 -20h-94q-17 0 -18 10q0 4 3 10z" />
<glyph unicode="Y" horiz-adv-x="1103" d="M96 1413q-3 6 -2 11q0 10 12 10h99q16 0 22 -21l332 -835h21l297 835q6 20 22 21h98q13 0 13 -10q0 -4 -2 -11l-502 -1393q-6 -20 -23 -20h-96q-18 0 -10 20l151 420h-24q-14 0 -23 21z" />
<glyph unicode="Z" horiz-adv-x="1099" d="M133 18v84q0 14 6 27l672 1186h-657l-21 18v82q2 18 21 19h774q18 -2 18 -21v-94q0 -14 -6 -27l-670 -1173h676l21 -19v-82q-2 -18 -21 -18h-792z" />
<glyph unicode="[" horiz-adv-x="548" d="M66 -434v2068h288l21 -18v-80q0 -20 -21 -20h-174v-1831h174l21 -21v-80q0 -18 -21 -18h-288z" />
<glyph unicode="\" horiz-adv-x="593" d="M-70 1485q-1 5 -1 8q0 12 16 12h75q14 0 21 -16l520 -1540q1 -5 2 -9q0 -12 -16 -12h-76q-14 0 -20 17z" />
<glyph unicode="]" horiz-adv-x="516" d="M66 -336q0 20 20 21h174v1831h-174l-20 20v80q0 18 20 18h289v-2068h-289l-20 18v80z" />
<glyph unicode="^" horiz-adv-x="1705" />
<glyph unicode="_" horiz-adv-x="1077" d="M72 -72q0 20 20 21h893l21 -19v-63q0 -20 -21 -21h-893l-20 19v63z" />
<glyph unicode="a" horiz-adv-x="882" d="M92 236q0 121 55.5 196.5t186.5 108.5l297 69v113q-4 88 -59.5 144.5t-143.5 56.5q-90 0 -140 -47.5t-50 -128.5q0 -4 -3.5 -8.5t-5.5 -6.5h-4h-98q-10 4 -10 15q0 131 88 210.5t223 79.5t228.5 -90t93.5 -258v-670l-19 -20h-80q-20 0 -20 20v72q-80 -106 -238 -106 q-141 0 -221 68.5t-80 181.5zM211 248q0 -72 49 -110t133 -38q102 0 170 72t68 166v149l-285 -65q-135 -31 -135 -174z" />
<glyph unicode="b" horiz-adv-x="940" d="M143 20v1393l19 21h80q20 0 20 -21v-461q29 41 87.5 63.5t119.5 22.5q150 0 244 -96t94 -248v-375q0 -143 -85 -238t-222 -95q-158 0 -238 106v-72l-18 -20h-80q-21 0 -21 20zM260 309q0 -98 62.5 -153.5t166.5 -55.5q82 0 138.5 63.5t60.5 155.5v375q0 98 -58.5 163 t-160.5 65q-82 0 -145.5 -55.5t-63.5 -172.5v-385z" />
<glyph unicode="c" d="M102 354v308q0 377 334 376q266 0 305 -250q4 -20 -12 -26l-76 -21q-18 -6 -22 17q-8 66 -55.5 116t-139.5 50q-215 0 -215 -267v-303q0 -113 56.5 -183.5t158.5 -70.5q100 0 152.5 68t52.5 151q0 10 5 15.5t9 5.5l7 2h71q27 0 27 -27q0 -133 -83 -231t-241 -98 q-156 0 -245 92t-89 276z" />
<glyph unicode="d" horiz-adv-x="907" d="M102 317v375q0 152 83 249t239 97q63 0 128.5 -25.5t92.5 -68.5v469l19 21h81q18 0 19 -21v-1393l-21 -20h-79q-18 0 -19 20v72q-80 -106 -229 -106q-137 0 -225.5 94t-88.5 237zM221 317q0 -92 55.5 -154.5t139.5 -62.5q104 0 166.5 55.5t62.5 161.5v375 q0 121 -66.5 176.5t-154.5 55.5q-100 0 -151.5 -61.5t-51.5 -170.5v-375z" />
<glyph unicode="e" horiz-adv-x="925" d="M133 303v393q0 150 94.5 246t251.5 96q133 0 223.5 -78.5t90.5 -195.5v-182q0 -66 -70 -80l-471 -88v-111q4 -90 60.5 -146.5t150.5 -56.5q100 0 156.5 54.5t56.5 148.5q0 4 3 8t5 4l4 2h94q10 -4 11 -14q0 -150 -90.5 -233.5t-239.5 -83.5q-145 0 -237.5 90t-92.5 227z M252 530l422 80v150q0 78 -56.5 121t-148.5 43q-113 0 -165 -62.5t-52 -165.5v-166z" />
<glyph unicode="f" horiz-adv-x="616" d="M133 909v76q0 20 21 21h84v116q0 147 79.5 229.5t235.5 82.5h43l20 -19v-76q0 -20 -20 -20h-43q-106 0 -151.5 -47t-45.5 -150v-116h228l20 -19v-76q0 -20 -20 -20h-228v-871l-18 -20h-80q-20 0 -20 20v871h-84z" />
<glyph unicode="g" horiz-adv-x="987" d="M164 317v375q0 152 83 249t238 97q63 0 129 -25.5t93 -68.5v74l18 20h82q18 0 18 -20v-1127q0 -156 -88 -240.5t-243.5 -84.5t-240.5 88t-85 244l18 20h76q20 0 21 -20q0 -217 211 -217q213 0 213 210v201q-80 -106 -230 -106q-137 0 -225 94t-88 237zM283 317 q0 -92 55 -154.5t139 -62.5q104 0 167 55.5t63 161.5v375q0 121 -67 176.5t-155 55.5q-100 0 -151 -61.5t-51 -170.5v-375z" />
<glyph unicode="h" horiz-adv-x="942" d="M154 20v1393l18 21h80q20 0 20 -21v-457q49 82 217 82q152 0 236 -88t84 -260v-670l-18 -20h-80q-20 0 -21 20v670q0 98 -51 166t-150 68q-102 0 -159.5 -62.5t-57.5 -171.5v-670l-20 -20h-78q-20 0 -20 20z" />
<glyph unicode="i" horiz-adv-x="452" d="M154 1280v133l18 21h107q20 0 20 -21v-133l-18 -20h-107q-20 0 -20 20zM166 20v984l18 20h80q20 0 21 -20v-984l-19 -20h-80q-20 0 -20 20z" />
<glyph unicode="j" horiz-adv-x="505" d="M-20 -340q0 20 20 21q213 0 213 210v1113l18 20h80q20 0 21 -20v-1113q0 -156 -88 -240.5t-244 -84.5l-20 18v76zM197 1280v133l18 21h107q20 0 20 -21v-133l-18 -20h-107q-20 0 -20 20z" />
<glyph unicode="k" d="M143 20v1393l19 21h80q20 0 20 -21v-846l377 445q8 12 23 12h100q25 0 12 -14l-311 -377l366 -619q3 -4 4 -7q0 -7 -16 -7h-92q-10 0 -18 12l-322 535l-123 -152v-375l-18 -20h-82q-19 0 -19 20z" />
<glyph unicode="l" horiz-adv-x="532" d="M147 319v1094l19 21h80q20 0 20 -21v-1094q0 -115 46 -167t159 -52l21 -18v-76q0 -20 -21 -20q-324 -1 -324 333z" />
<glyph unicode="m" horiz-adv-x="1363" d="M143 20v984l19 20h82q18 0 18 -20v-60q27 43 83 68.5t124 25.5q168 0 233 -98q68 98 211 98q137 0 227.5 -76.5t90.5 -267.5v-674l-21 -20h-77q-20 0 -21 20v674q0 106 -48 168t-151 62q-66 0 -109.5 -46.5t-43.5 -119.5v-738l-21 -20h-73q-20 0 -21 20v738q0 68 -45 117 t-133 49q-113 0 -159 -66.5t-46 -163.5v-674l-22 -20h-76q-21 0 -21 20z" />
<glyph unicode="n" horiz-adv-x="933" d="M143 20v984l19 20h82q18 0 18 -20v-60q68 94 217 94q143 0 232.5 -91t89.5 -257v-670l-21 -20h-78q-20 0 -20 20v670q0 233 -209 234q-113 0 -162 -69t-49 -165v-670l-22 -20h-76q-21 0 -21 20z" />
<glyph unicode="o" horiz-adv-x="864" d="M102 354v305q0 379 330 379t330 -379v-305q0 -174 -82 -271t-248 -97t-248 97t-82 271zM221 352q0 -117 59.5 -184.5t151.5 -67.5t151.5 68t59.5 184v307q0 264 -211 264.5t-211 -264.5v-307z" />
<glyph unicode="p" horiz-adv-x="940" d="M143 -414v1418l19 20h80q20 0 20 -20v-80q16 45 88 79.5t142 34.5q154 0 234.5 -96t80.5 -252v-354q0 -143 -90 -246.5t-221 -103.5q-154 0 -234 106v-506l-18 -20h-80q-21 0 -21 20zM262 338q0 -98 59.5 -168t159.5 -70q86 0 146.5 69t60.5 167v354q0 111 -55 172.5 t-158 61.5q-90 0 -151.5 -63.5t-61.5 -170.5v-352z" />
<glyph unicode="q" horiz-adv-x="903" d="M102 336v354q0 156 83 252t249 96q68 0 125 -26.5t82 -67.5v60l21 20h79q18 0 19 -20v-1418l-21 -20h-80q-18 0 -18 20v506q-80 -106 -238 -106q-135 0 -218 102.5t-83 247.5zM221 336q0 -102 53.5 -169t145.5 -67q221 0 221 238v352q0 119 -57.5 176.5t-149.5 57.5 q-109 0 -161 -64.5t-52 -169.5v-354z" />
<glyph unicode="r" horiz-adv-x="544" d="M143 20v984l21 20h76q23 0 22 -20v-60q55 94 221 94l21 -20v-76q0 -23 -21 -22q-221 0 -221 -236v-664l-22 -20h-76q-21 0 -21 20z" />
<glyph unicode="s" horiz-adv-x="798" d="M82 295l18 20h82q20 0 21 -20q0 -84 59.5 -139.5t157.5 -55.5q72 0 126 43t54 107q0 104 -119 168l-223 119q-76 39 -111.5 105.5t-35.5 129.5q0 59 24.5 115.5t95 103.5t177.5 47q121 0 202.5 -61.5t89.5 -179.5q0 -20 -16 -25l-74 -12q-20 -2 -22 18q-18 145 -180 146 q-102 0 -141.5 -49.5t-39.5 -98.5q0 -86 76 -125l248 -135q166 -90 166 -266q0 -113 -82 -188.5t-219 -75.5q-88 0 -157 32.5t-104.5 82t-54 99.5t-18.5 95z" />
<glyph unicode="t" horiz-adv-x="628" d="M72 909v76q0 20 20 21h88v366l19 21h80q20 0 20 -21v-366h215l21 -19v-76q0 -20 -21 -20h-215v-580q0 -117 44 -155.5t153 -40.5h12l20 -19v-76q0 -20 -20 -20h-12q-158 0 -237 72.5t-79 238.5v580h-88z" />
<glyph unicode="u" horiz-adv-x="923" d="M133 338v666l19 20h81q18 0 19 -20v-666q0 -238 207 -238q31 0 62.5 9.5t67.5 33t59.5 73.5t23.5 122v666l18 20h82q18 0 19 -20v-984l-23 -20h-76q-20 0 -20 20v72q-55 -106 -226 -106q-139 0 -226 87t-87 265z" />
<glyph unicode="v" horiz-adv-x="808" d="M51 1004q-1 4 -1 7q0 11 16 13h88q16 0 20 -20l227 -820l224 820l20 20h88l12 -4q4 -4 4 -9q0 -3 -1 -7l-281 -984l-21 -20h-90q-16 0 -20 20z" />
<glyph unicode="w" horiz-adv-x="1282" d="M63 1004q-1 4 -1 7q0 11 16 13h92q16 0 20 -20l164 -799l209 799q6 20 23 20h110q16 0 23 -20l213 -799l160 799l20 20h92l15 -20l-226 -984l-20 -20h-84q-16 0 -21 20l-227 867l-225 -867l-21 -20h-84q-16 0 -20 20z" />
<glyph unicode="x" horiz-adv-x="763" d="M25 20l290 515l-262 469q-10 20 15 20h94q16 0 26 -20l197 -355l190 355q10 20 27 20h94q25 0 15 -20l-258 -469l286 -515q3 -6 3 -10q0 -10 -17 -10h-94q-16 0 -27 20l-223 398l-223 -398q-10 -20 -27 -20h-92q-17 0 -17 10q0 4 3 10z" />
<glyph unicode="y" horiz-adv-x="815" d="M23 1004q-1 4 -2 7q0 11 16 13h92q14 0 21 -20l239 -875h17l241 875l21 20h90l14 -20l-350 -1197q-31 -102 -79 -158.5t-87 -69.5t-88 -13h-23l-20 22v72q0 20 20 21q80 0 119 43q29 33 47 88l60 188h-39q-14 0 -23 20z" />
<glyph unicode="z" horiz-adv-x="888" d="M90 18v68q0 14 6 27l543 796h-502l-20 19v78q2 18 20 18h613q18 -2 18 -20v-99q0 -14 -6 -26l-520 -764h526l20 -19v-78q-2 -18 -20 -18h-657z" />
<glyph unicode="&#xaa;" horiz-adv-x="882" d="M92 236q0 121 55.5 196.5t186.5 108.5l297 69v113q-4 88 -59.5 144.5t-143.5 56.5q-90 0 -140 -47.5t-50 -128.5q0 -4 -3.5 -8.5t-5.5 -6.5h-4h-98q-10 4 -10 15q0 131 88 210.5t223 79.5t228.5 -90t93.5 -258v-670l-19 -20h-80q-20 0 -20 20v72q-80 -106 -238 -106 q-141 0 -221 68.5t-80 181.5zM211 248q0 -72 49 -110t133 -38q102 0 170 72t68 166v149l-285 -65q-135 -31 -135 -174z" />
<glyph unicode="&#xb2;" horiz-adv-x="903" d="M92 1092q0 158 91 257t251 99q190 0 280.5 -113.5t90.5 -279.5q0 -223 -152 -414l-374 -522h512l20 -19v-82q0 -18 -18 -18h-654l-18 18v80q0 20 18 43l393 547q90 115 119 190.5t29 176.5q0 123 -61.5 198.5t-186.5 75.5q-215 0 -215 -237l-20 -25h-86q-19 0 -19 25z " />
<glyph unicode="&#xb3;" horiz-adv-x="946" d="M102 367l19 20h86q20 0 20 -20q0 -127 61.5 -195t172.5 -68q113 0 175 61.5t62 221.5q0 152 -60 222.5t-144 70.5h-48l-20 20v78q0 18 20 19h50q184 0 184 272q0 260 -217 260q-111 0 -162 -58.5t-51 -180.5l-21 -21h-86q-18 0 -18 21q0 168 92 263t246 95 q168 0 255 -101.5t87 -277.5q0 -301 -160 -334q59 -25 97 -66.5t54.5 -94t21.5 -93.5t5 -94q0 -188 -95 -294.5t-267 -106.5q-100 0 -175 37.5t-112 99t-54.5 122.5t-17.5 122z" />
<glyph unicode="&#xb9;" d="M72 20v80q0 18 22 19h275v1196h-162l-21 20v80q0 18 23 19h264q20 0 21 -21v-1294h274l23 -19v-80q0 -20 -21 -20h-678z" />
<glyph unicode="&#xba;" horiz-adv-x="864" d="M102 354v305q0 379 330 379t330 -379v-305q0 -174 -82 -271t-248 -97t-248 97t-82 271zM221 352q0 -117 59.5 -184.5t151.5 -67.5t151.5 68t59.5 184v307q0 264 -211 264.5t-211 -264.5v-307z" />
<glyph unicode="&#xc2;" horiz-adv-x="1200" d="M94 14l395 1399l23 21h180q18 0 25 -21l389 -1399q2 -6 -1 -10t-7 -4h-4h-101q-12 0 -18 20l-148 519h-450l-152 -519q-6 -20 -18 -20h-101h-4q-2 0 -6 4t-2 10zM408 659h389l-172 656h-37z" />
<glyph unicode="&#xca;" horiz-adv-x="1030" d="M164 0v1434h723l20 -19v-82q0 -18 -18 -18h-600v-535h454l21 -18v-82q0 -18 -19 -18h-456v-543h598l20 -19v-82q0 -18 -18 -18h-725z" />
<glyph unicode="&#xce;" horiz-adv-x="452" d="M164 20v1393l18 21h86q20 0 21 -21v-1393l-19 -20h-86q-20 0 -20 20z" />
<glyph unicode="&#xd4;" horiz-adv-x="1101" d="M143 434v563q0 203 99.5 327t308.5 124t308 -124t99 -327v-563q0 -201 -99 -324.5t-308 -123.5t-308.5 123.5t-99.5 324.5zM268 434q0 -330 283 -330t283 330v563q0 168 -74 250t-209 82t-209 -82t-74 -250v-563z" />
<glyph unicode="&#xdb;" horiz-adv-x="1073" d="M133 506v907l21 21h86q18 0 18 -21v-907q0 -401 278.5 -401.5t278.5 401.5v907l19 21h86q20 0 20 -21v-907q0 -227 -98.5 -373.5t-305 -146.5t-305 146.5t-98.5 373.5z" />
<glyph unicode="&#xe2;" horiz-adv-x="882" d="M92 236q0 121 55.5 196.5t186.5 108.5l297 69v113q-4 88 -59.5 144.5t-143.5 56.5q-90 0 -140 -47.5t-50 -128.5q0 -4 -3.5 -8.5t-5.5 -6.5h-4h-98q-10 4 -10 15q0 131 88 210.5t223 79.5t228.5 -90t93.5 -258v-670l-19 -20h-80q-20 0 -20 20v72q-80 -106 -238 -106 q-141 0 -221 68.5t-80 181.5zM211 248q0 -72 49 -110t133 -38q102 0 170 72t68 166v149l-285 -65q-135 -31 -135 -174z" />
<glyph unicode="&#xea;" horiz-adv-x="925" d="M133 303v393q0 150 94.5 246t251.5 96q133 0 223.5 -78.5t90.5 -195.5v-182q0 -66 -70 -80l-471 -88v-111q4 -90 60.5 -146.5t150.5 -56.5q100 0 156.5 54.5t56.5 148.5q0 4 3 8t5 4l4 2h94q10 -4 11 -14q0 -150 -90.5 -233.5t-239.5 -83.5q-145 0 -237.5 90t-92.5 227z M252 530l422 80v150q0 78 -56.5 121t-148.5 43q-113 0 -165 -62.5t-52 -165.5v-166z" />
<glyph unicode="&#xee;" horiz-adv-x="452" d="M154 1280v133l18 21h107q20 0 20 -21v-133l-18 -20h-107q-20 0 -20 20zM166 20v984l18 20h80q20 0 21 -20v-984l-19 -20h-80q-20 0 -20 20z" />
<glyph unicode="&#xf4;" horiz-adv-x="864" d="M102 354v305q0 379 330 379t330 -379v-305q0 -174 -82 -271t-248 -97t-248 97t-82 271zM221 352q0 -117 59.5 -184.5t151.5 -67.5t151.5 68t59.5 184v307q0 264 -211 264.5t-211 -264.5v-307z" />
<glyph unicode="&#xfb;" horiz-adv-x="923" d="M133 338v666l19 20h81q18 0 19 -20v-666q0 -238 207 -238q31 0 62.5 9.5t67.5 33t59.5 73.5t23.5 122v666l18 20h82q18 0 19 -20v-984l-23 -20h-76q-20 0 -20 20v72q-55 -106 -226 -106q-139 0 -226 87t-87 265z" />
<glyph unicode="&#x152;" horiz-adv-x="2131" d="M143 434v563q0 203 99.5 327t308.5 124t308 -124t99 -327v-563q0 -201 -99 -324.5t-308 -123.5t-308.5 123.5t-99.5 324.5zM268 434q0 -330 283 -330t283 330v563q0 168 -74 250t-209 82t-209 -82t-74 -250v-563zM1266 0v1434h723l20 -19v-82q0 -18 -18 -18h-600v-535 h454l21 -18v-82q0 -18 -19 -18h-456v-543h598l20 -19v-82q0 -18 -18 -18h-725z" />
<glyph unicode="&#x153;" horiz-adv-x="1789" d="M102 354v305q0 379 330 379t330 -379v-305q0 -174 -82 -271t-248 -97t-248 97t-82 271zM221 352q0 -117 59.5 -184.5t151.5 -67.5t151.5 68t59.5 184v307q0 264 -211 264.5t-211 -264.5v-307zM997 303v393q0 150 94.5 246t251.5 96q133 0 223.5 -78.5t90.5 -195.5v-182 q0 -66 -70 -80l-471 -88v-111q4 -90 60.5 -146.5t150.5 -56.5q100 0 156.5 54.5t56.5 148.5q0 4 3 8t5 4l4 2h95q10 -4 10 -14q0 -150 -90 -233.5t-240 -83.5q-145 0 -237.5 90t-92.5 227zM1116 530l422 80v150q0 78 -56.5 121t-148.5 43q-113 0 -165 -62.5t-52 -165.5v-166 z" />
<glyph unicode="&#x2013;" horiz-adv-x="1024" d="M205 512v205h614v-205h-614z" />
<glyph unicode="&#x2014;" horiz-adv-x="2048" d="M205 512v205h1638v-205h-1638z" />
<glyph unicode="&#x2018;" horiz-adv-x="294" d="M59 1206l62 330q4 18 18 20h56q20 0 20 -20v-338l-18 -20h-117q-27 -1 -21 28z" />
<glyph unicode="&#x2019;" horiz-adv-x="294" d="M88 1198v338l18 20h117q22 0 22 -18q0 -4 -1 -10l-62 -330q-4 -18 -18 -20h-55q-21 0 -21 20z" />
<glyph unicode="&#x201c;" horiz-adv-x="555" d="M88 1495l18 21h93q20 0 20 -21l-24 -297l-21 -20h-39q-18 0 -20 20zM311 1495l19 21h92q20 0 20 -21l-24 -297l-21 -20h-39q-18 0 -20 20z" />
<glyph unicode="&#x201d;" horiz-adv-x="555" d="M88 1495l18 21h93q20 0 20 -21l-24 -297l-21 -20h-39q-18 0 -20 20zM311 1495l19 21h92q20 0 20 -21l-24 -297l-21 -20h-39q-18 0 -20 20z" />
<glyph unicode="&#x2026;" horiz-adv-x="1038" d="M90 20v123l19 21h116q20 0 21 -21v-123l-19 -20h-116q-21 0 -21 20zM436 20v123l19 21h116q20 0 21 -21v-123l-19 -20h-116q-21 0 -21 20zM782 20v123l19 21h117q20 0 20 -21v-123l-18 -20h-117q-21 0 -21 20z" />
<glyph unicode="&#x2039;" horiz-adv-x="667" d="M20 518v2v2v2v2v2v2v2v3v2v4v2v2v4v2v4v2v4v4v19q0 16 21 28l514 326q10 4 14 2t4 -8l2 -6v-99q0 -18 -20 -28l-420 -248l420 -248q20 -10 20 -29v-98q0 -2 -1 -5t-5 -9t-14 2l-514 325q-21 15 -21 29z" />
<glyph unicode="&#x203a;" horiz-adv-x="667" d="M92 176v98q0 18 21 29l419 248l-419 248q-20 10 -21 28v99q0 2 1 5t5 9q2 3 5 3q4 0 10 -5l514 -326q20 -12 20 -28v-2v-2v-2v-3v-2v-2v-2v-2v-2v-2v-4v-2v-4v-2v-4v-2v-4v-2v-21q0 -14 -20 -29l-514 -325q-7 -3 -11 -3q-2 0 -4 1q-4 2 -4 8z" />
<glyph unicode="&#x2122;" horiz-adv-x="2226" d="M82 1333v80q0 20 20 21h781l20 -19v-80q0 -20 -20 -20h-328v-1295l-18 -20h-86q-20 0 -21 20v1295h-328zM1149 20v1393q0 20 20 21h127q18 0 29 -21l283 -663l278 663q10 20 29 21h127q20 0 20 -21v-1393q0 -20 -20 -20h-84q-20 0 -21 20l11 1264l-265 -659 q-8 -20 -22 -21h-98q-16 0 -25 21l-272 659l8 -1264q0 -20 -21 -20h-84q-20 0 -20 20z" />
<glyph unicode="&#xe000;" horiz-adv-x="1025" d="M0 1025h1025v-1025h-1025v1025z" />
<glyph unicode="&#xfb01;" horiz-adv-x="1069" d="M133 909v76q0 20 21 21h84v116q0 147 79.5 229.5t235.5 82.5h43l20 -19v-76q0 -20 -20 -20h-43q-106 0 -151.5 -47t-45.5 -150v-116h228l20 -19v-76q0 -20 -20 -20h-228v-871l-18 -20h-80q-20 0 -20 20v871h-84zM770 1280v133l18 21h107q20 0 20 -21v-133l-18 -20h-106 q-21 0 -21 20zM782 20v984l19 20h80q20 0 20 -20v-984l-18 -20h-80q-21 0 -21 20z" />
<glyph unicode="&#xfb02;" horiz-adv-x="1148" d="M133 909v76q0 20 21 21h84v116q0 147 79.5 229.5t235.5 82.5h43l20 -19v-76q0 -20 -20 -20h-43q-106 0 -151.5 -47t-45.5 -150v-116h228l20 -19v-76q0 -20 -20 -20h-228v-871l-18 -20h-80q-20 0 -20 20v871h-84zM764 319v1094l18 21h80q20 0 21 -21v-1094q0 -115 46 -167 t158 -52l21 -18v-76q0 -20 -21 -20q-323 -1 -323 333z" />
<glyph unicode="&#xfb03;" horiz-adv-x="1685" d="M133 909v76q0 20 21 21h84v116q0 147 79.5 229.5t235.5 82.5h43l20 -19v-76q0 -20 -20 -20h-43q-106 0 -151.5 -47t-45.5 -150v-116h228l20 -19v-76q0 -20 -20 -20h-228v-871l-18 -20h-80q-20 0 -20 20v871h-84zM750 909v76q0 20 20 21h84v116q0 147 80 229.5t235 82.5 h43l21 -19v-76q0 -20 -21 -20h-43q-106 0 -151 -47t-45 -150v-116h227l21 -19v-76q0 -20 -21 -20h-227v-871l-19 -20h-80q-20 0 -20 20v871h-84zM1386 1280v133l19 21h106q20 0 21 -21v-133l-19 -20h-106q-21 0 -21 20zM1399 20v984l18 20h80q20 0 21 -20v-984l-19 -20h-80 q-20 0 -20 20z" />
<glyph unicode="&#xfb04;" horiz-adv-x="1765" d="M133 909v76q0 20 21 21h84v116q0 147 79.5 229.5t235.5 82.5h43l20 -19v-76q0 -20 -20 -20h-43q-106 0 -151.5 -47t-45.5 -150v-116h228l20 -19v-76q0 -20 -20 -20h-228v-871l-18 -20h-80q-20 0 -20 20v871h-84zM750 909v76q0 20 20 21h84v116q0 147 80 229.5t235 82.5 h43l21 -19v-76q0 -20 -21 -20h-43q-106 0 -151 -47t-45 -150v-116h227l21 -19v-76q0 -20 -21 -20h-227v-871l-19 -20h-80q-20 0 -20 20v871h-84zM1380 319v1094l19 21h80q20 0 20 -21v-1094q0 -115 46 -167t159 -52l20 -18v-76q0 -20 -20 -20q-324 -1 -324 333z" />
</font>
</defs>
</svg>
