<?xml version="1.0" standalone="no"?>
<!DOCTYPE svg PUBLIC "-//W3C//DTD SVG 1.1//EN" "http://www.w3.org/Graphics/SVG/1.1/DTD/svg11.dtd" >
<svg xmlns="http://www.w3.org/2000/svg">
<metadata>
This is a custom SVG webfont generated by Font Squirrel.
Copyright   : Copyright c 2010 by Marco Mller All rights reserved
Designer    : Marco Mller
Foundry     : Marco Mller
</metadata>
<defs>
<font id="MelbourneBold" horiz-adv-x="903" >
<font-face units-per-em="2048" ascent="1536" descent="-512" />
<missing-glyph horiz-adv-x="430" />
<glyph unicode=" "  horiz-adv-x="430" />
<glyph unicode="&#x09;" horiz-adv-x="430" />
<glyph unicode="&#xa0;" horiz-adv-x="430" />
<glyph unicode="!" horiz-adv-x="462" d="M154 59v95q0 27 16 43t39 16h102q23 0 39.5 -16.5t16.5 -42.5v-95q0 -27 -16.5 -43t-39.5 -16h-102q-23 0 -39 16t-16 43zM160 385v989q4 53 57 60h80q6 0 16.5 -2t27.5 -16.5t17 -41.5v-989q-4 -53 -59 -59h-80q-6 0 -16 2t-26.5 16t-16.5 41z" />
<glyph unicode="&#x22;" horiz-adv-x="595" d="M109 1374q0 27 14 43.5t37 16.5h86q23 0 37 -16.5t14 -43.5l-27 -231q-6 -59 -43 -60h-49q-31 0 -43 60zM395 1374q0 27 14.5 43.5t36.5 16.5h86q23 0 37.5 -16.5t14.5 -43.5l-27 -231q-6 -59 -43 -60h-49q-31 0 -43 60z" />
<glyph unicode="#" horiz-adv-x="1347" d="M72 281l2 8l16 63q0 6 3 14.5t19.5 22.5t43.5 14h200l66 267h-232q-63 0 -61 49l2 8l16 64q0 6 3.5 14t19.5 22.5t43 14.5h252l61 252q13 51 59 51h7h65q6 0 15.5 -2t22 -19.5t3.5 -50.5l-57 -231h256l64 252q13 51 58 51h7h66q6 0 15 -2t21.5 -19.5t4.5 -50.5l-58 -231 h215q63 0 62 -49l-2 -9l-17 -63q0 -6 -3 -14.5t-19.5 -22.5t-42.5 -14h-234l-65 -267h264q63 0 61 -49l-2 -8l-16 -63q0 -6 -3 -14.5t-19.5 -23t-43.5 -14.5h-284l-60 -247q-13 -51 -58 -52h-7h-66q-6 0 -15 2.5t-21.5 19.5t-4.5 50l56 227h-258l-60 -247q-13 -51 -59 -52 h-6h-66q-6 0 -15.5 2.5t-21.5 19.5t-4 50l55 227h-182q-63 1 -61 50zM535 403h256l65 267h-256z" />
<glyph unicode="$" horiz-adv-x="1034" d="M111 406q4 53 59 59h82q6 0 15 -2t25.5 -16.5t16.5 -40.5q0 -166 125 -211v481l-98 51q-211 109 -211 354q0 143 85 236.5t222 120.5v102q0 27 16.5 43t38.5 16h76q23 0 39 -16t16 -43v-98q137 -23 219.5 -111t102.5 -219q1 -8 1 -14q0 -41 -42 -56l-72 -18 q-16 -4 -28 -4q-44 0 -56 49q-33 135 -125 166l3 -434l141 -74q92 -49 144 -139t52 -195q0 -156 -89 -264.5t-246 -134.5v-113q0 -25 -16.5 -42t-41.5 -17h-73q-23 0 -39.5 16.5t-16.5 42.5v115q-135 25 -230 125.5t-95 284.5zM324 1075q0 -119 86 -164l24 -12l-2 332 q-108 -41 -108 -156zM621 195q70 23 104.5 79t34.5 119q0 117 -129 182l-10 5v-385z" />
<glyph unicode="%" horiz-adv-x="1239" d="M139 948v217q0 102 57.5 170t161.5 68q106 0 161.5 -66.5t55.5 -171.5v-217q0 -96 -66.5 -160.5t-152.5 -64.5q-88 0 -152.5 63.5t-64.5 161.5zM289 977q0 -80 65 -80q70 0 70 80v164q0 82 -67.5 82t-67.5 -82v-164zM360 59l443 1315q12 37 28.5 48.5t51.5 11.5h57 q55 0 55 -38q0 -10 -4 -22l-444 -1315q-12 -37 -28.5 -48t-51.5 -11h-55q-55 0 -55 37q-1 10 3 22zM752 225v217q0 102 57 170t162 68q106 0 161.5 -66.5t55.5 -171.5v-217q0 -96 -66.5 -160.5t-152.5 -64.5q-88 0 -152.5 63.5t-64.5 161.5zM901 254q0 -80 66 -80 q70 0 69 80v164q0 82 -67.5 82t-67.5 -82v-164z" />
<glyph unicode="&#x26;" horiz-adv-x="1249" d="M98 341q0 191 148 321l116 104l-40 68q-61 108 -61 196q0 25 4 48q22 108 111 173.5t204 65.5q125 0 217 -70.5t92 -216.5q0 -27 -15.5 -43t-39.5 -16h-76q-25 0 -40.5 16.5t-15.5 42.5q0 43 -28.5 81t-89.5 38q-84 0 -123 -67q-18 -31 -18 -62q0 -36 24 -74l344 -534 l15 15l15 14l12 11.5t13 11.5t13.5 9t15.5 8t15.5 4t19.5 3t22 1h47q25 0 42.5 -17t17.5 -40v-59q0 -23 -16.5 -39.5t-43.5 -16.5q-29 -2 -38 -3t-25 -11t-33 -35q33 -57 62.5 -76.5t76.5 -19.5h25q27 0 43 -16.5t16 -40.5v-60q0 -23 -16 -39t-43 -16h-33h-18q-59 0 -88 4 t-72 35t-84 94l-16 -18q-66 -72 -131.5 -100.5t-159.5 -28.5q-170 0 -267 103q-100 106 -100 252zM276 336q0 -63 50.5 -120.5t136.5 -57.5q100 0 184 100l23 27l-213 329l-58 -51q-78 -70 -100.5 -112.5t-22.5 -114.5z" />
<glyph unicode="(" horiz-adv-x="649" d="M123 588v278q0 647 305 899q25 14 43 11.5t31 -15.5l12 -10l47 -61q35 -45 -10 -82q-106 -94 -157.5 -260t-51.5 -482v-278q0 -315 51 -481t158 -261q43 -37 10 -82l-47 -61q-4 -6 -11 -12t-30.5 -14.5t-44.5 12.5q-305 252 -305 899z" />
<glyph unicode=")" horiz-adv-x="753" d="M178 -236q-15 20 -15 38q0 23 25 44q106 94 157.5 260t51.5 482v278q0 315 -51 481t-158 261q-24 21 -24 44q0 18 14 38l47 61q4 6 11.5 12t30.5 15q7 2 13 2q16 0 31 -15q305 -252 305 -899v-278q0 -647 -305 -899q-20 -12 -36 -12h-7q-18 3 -30 16l-13 10z" />
<glyph unicode="*" horiz-adv-x="641" d="M59 1397v4l23 84q8 18 31 18l139 -43v154l20 20l95 2q16 0 20 -18v-152l139 43q25 8 29 -8l33 -86q2 -4 1 -7q0 -10 -14 -19l-139 -52l82 -125q8 -8 8 -16t-4 -12l-4 -2l-65 -49q-18 -10 -33 6l-94 125l-86 -129q-9 -13 -17 -13l-8 2l-74 50l-4 30l82 123l-145 51 q-8 4 -11.5 9.5t-3.5 9.5z" />
<glyph unicode="+" horiz-adv-x="684" d="M39 518v60q0 25 17.5 41t41.5 16h199v196q0 25 17.5 42.5t39.5 17.5h60q23 0 39 -16.5t16 -43.5v-196h195q25 0 42 -16.5t17 -40.5v-60q0 -23 -16.5 -39t-42.5 -16h-195v-197q0 -27 -16.5 -43t-38.5 -16h-60q-23 0 -40 17.5t-17 41.5v197h-199q-27 0 -43 16t-16 39z" />
<glyph unicode="," horiz-adv-x="419" d="M143 154q0 27 16.5 43t39.5 16h104q52 0 53 -47q0 -12 -4 -27l-78 -323q-16 -68 -67 -68h-8q-23 0 -39.5 16.5t-16.5 42.5v347z" />
<glyph unicode="." horiz-adv-x="387" d="M111 59v95q0 27 16 43t39 16h102q23 0 39.5 -16.5t16.5 -42.5v-95q0 -27 -16.5 -43t-39.5 -16h-102q-23 0 -39 16t-16 43z" />
<glyph unicode="/" horiz-adv-x="712" d="M43 -12l494 1458q12 37 28.5 48t50.5 11h58q55 0 55 -37q0 -10 -4 -22l-496 -1458q-12 -37 -28.5 -48.5t-50.5 -11.5h-56q-55 0 -55 37q0 11 4 23z" />
<glyph unicode="0" horiz-adv-x="1011" d="M143 416v604q0 195 95.5 311.5t277.5 116.5t278.5 -117t96.5 -311v-604q0 -190 -102.5 -310t-272.5 -120t-271.5 120t-101.5 310zM342 449q0 -150 42 -212.5t132 -62.5t133 63.5t43 211.5v534q0 147 -43 208.5t-133 61.5t-132 -61.5t-42 -208.5v-534z" />
<glyph unicode="1" d="M92 57v80v6q0 4 3 14.5t9.5 17.5t17.5 13.5t28 6.5h270v1044h-150q-53 4 -59 57v80v6q0 4 3 14.5t9 17.5t17.5 13.5t27.5 6.5h291q53 -4 59 -60v-1179h269q51 -4 57 -58v-80q0 -6 -2 -15t-16.5 -25.5t-40.5 -16.5h-733q-54 4 -60 57z" />
<glyph unicode="2" horiz-adv-x="944" d="M113 53v84q0 23 10 43l420 531q92 117 117.5 181t25.5 163q0 106 -48 161.5t-124 55.5q-80 0 -122 -54.5t-42 -148.5q-2 -55 -63 -59h-80q-6 0 -15.5 2t-25.5 16t-16 41q0 176 98 277.5t260 101.5q190 0 283.5 -114.5t93.5 -278.5q0 -227 -156 -422l-352 -438h442 q53 -4 60 -58v-84q0 -6 -3.5 -15t-17.5 -23.5t-39 -14.5h-647q-25 0 -39 13.5t-18 27.5z" />
<glyph unicode="3" horiz-adv-x="987" d="M123 387q0 27 14.5 41t26.5 16l14 2h82q6 0 16.5 -2t28 -16t17.5 -41q0 -100 47 -153.5t131 -53.5q86 0 135 49.5t49 178.5q0 121 -45 177t-109 56h-43q-55 4 -61 61v74q0 6 2 15.5t17.5 26t41.5 16.5h45q135 0 136 217q0 203 -166 202q-160 0 -160 -184q0 -27 -15.5 -41 t-31.5 -16l-14 -2h-80q-6 0 -15.5 2t-26 16t-16.5 41q0 176 98.5 277.5t260.5 101.5q178 0 271 -106.5t93 -290.5q0 -238 -104 -322q121 -98 121 -321q0 -197 -101.5 -308.5t-281.5 -111.5q-106 0 -185 40t-118 104.5t-56.5 128t-17.5 126.5z" />
<glyph unicode="4" horiz-adv-x="993" d="M72 383v61q0 61 12 82l416 867q25 37 55 41h162q6 0 16 -2t27.5 -17.5t17.5 -42.5v-856h76q27 0 42 -14.5t17 -28.5l2 -14v-76q0 -6 -2 -16.5t-17 -27.5t-44 -17h-74v-261q0 -27 -14 -42t-31 -17l-14 -2h-78q-6 0 -16.5 2t-27.5 17.5t-17 41.5v261h-445q-29 0 -44 15 t-17 32zM283 516h297v641z" />
<glyph unicode="5" horiz-adv-x="956" d="M102 406q4 53 58 59h84q6 0 15 -2t25.5 -16.5t16.5 -41.5q0 -129 45 -177t141 -48q178 0 179 242v117q0 223 -179 223q-80 0 -133 -24.5t-53 -73.5q-4 -53 -57 -60h-84q-6 0 -15.5 2t-26 16.5t-16.5 41.5v708q4 53 58 60h573q51 -4 58 -58v-78q0 -6 -2.5 -16t-16.5 -26.5 t-39 -16.5h-432v-324q72 37 186 37q180 0 278.5 -116.5t98.5 -290.5v-121q0 -195 -101 -315.5t-276 -120.5q-180 0 -282.5 110.5t-102.5 309.5z" />
<glyph unicode="6" horiz-adv-x="1017" d="M143 424v590q0 209 105.5 321.5t277.5 112.5t273.5 -109.5t101.5 -275.5q-4 -57 -57 -64h-80q-6 0 -15.5 2.5t-25.5 17.5t-16 44q0 190 -181 190q-88 0 -136 -51t-48 -188v-168q72 68 190 67q180 0 276.5 -116.5t96.5 -290.5v-82q0 -197 -101.5 -316.5t-289.5 -119.5 q-172 0 -271.5 121.5t-99.5 314.5zM342 430q0 -248 172 -248q94 0 143.5 57.5t49.5 190.5v66q0 223 -172 223q-193 0 -193 -223v-66z" />
<glyph unicode="7" horiz-adv-x="866" d="M57 1296v80v6q0 4 3 14.5t9.5 17.5t17.5 13.5t28 6.5h643q51 -4 57 -58v-96q0 -109 -61 -246l-420 -993q-20 -41 -60 -41h-86h-20q-8 0 -19.5 4t-16.5 12.5t-4 22.5t11 37l369 862l74 174q31 78 34 127h-499q-54 4 -60 57z" />
<glyph unicode="8" horiz-adv-x="983" d="M123 406q0 238 133 350q-117 106 -117 305q0 66 15.5 126t51.5 122.5t112.5 100.5t185.5 38q86 0 152.5 -26.5t104.5 -65.5t61.5 -93.5t31.5 -102.5t8 -99q0 -197 -117 -303q61 -41 93 -112t37.5 -119t5.5 -121q0 -49 -10.5 -102.5t-38 -112t-68.5 -102.5t-108.5 -73.5 t-151.5 -29.5q-104 0 -183 43t-120 110.5t-59.5 135.5t-18.5 131zM322 406q0 -115 49 -170.5t133 -55.5q80 0 129 55.5t49 170.5q0 127 -49 190t-129 63q-82 0 -132 -63t-50 -190zM340 1061q0 -209 164 -209q158 0 158 209q0 113 -42 153.5t-116 40.5q-164 1 -164 -194z" />
<glyph unicode="9" horiz-adv-x="983" d="M123 936v68q0 195 111.5 319.5t291.5 124.5q174 0 274.5 -124t100.5 -320v-572q0 -205 -104.5 -325.5t-284.5 -120.5q-176 0 -280.5 112.5t-104.5 284.5q0 27 14.5 42t30.5 17l14 2h82q6 0 15.5 -2t26 -17t16.5 -42q0 -102 51 -153.5t135 -51.5q90 0 139 65.5t49 188.5 v141q-78 -55 -184 -55q-186 0 -289.5 120t-103.5 298zM322 940q0 -229 194 -229q184 0 184 209v84q0 131 -48 191t-126 60q-88 0 -146 -61t-58 -190v-64z" />
<glyph unicode=":" horiz-adv-x="401" d="M123 59v95q0 27 16.5 43t38.5 16h103q23 0 39 -16.5t16 -42.5v-95q0 -27 -16.5 -43t-38.5 -16h-103q-23 0 -39 16t-16 43zM123 629v94q0 27 16.5 43t38.5 16h103q23 0 39 -16t16 -43v-94q0 -27 -16.5 -43.5t-38.5 -16.5h-103q-23 0 -39 16.5t-16 43.5z" />
<glyph unicode=";" horiz-adv-x="417" d="M139 154q0 27 16.5 43t39.5 16h104q52 0 52 -47q0 -12 -3 -27l-78 -323q-16 -68 -67 -68h-8q-23 0 -39.5 16.5t-16.5 42.5v347zM139 629v94q0 27 16.5 43t39.5 16h102q23 0 39 -16t16 -43v-94q0 -27 -16.5 -43.5t-38.5 -16.5h-102q-23 0 -39.5 16.5t-16.5 43.5z" />
<glyph unicode="&#x3c;" horiz-adv-x="708" d="M41 526v47q0 33 37 56l518 332q13 8 25 8q8 0 16 -4q18 -10 18 -33v-58q0 -51 -39 -73l-378 -250l378 -250q39 -23 39 -74v-57q0 -23 -18 -33q-8 -4 -16 -4q-12 0 -25 8l-528 338q-27 16 -27 47z" />
<glyph unicode="=" horiz-adv-x="1034" d="M154 344v59q0 23 17 40.5t42 17.5h680q25 0 42 -17.5t17 -40.5v-59q0 -23 -16 -39t-43 -16h-680q-27 0 -43 16t-16 39zM154 690v60q0 25 17 41t42 16h680q25 0 42 -16.5t17 -40.5v-60q0 -23 -16 -39t-43 -16h-680q-27 0 -43 16t-16 39z" />
<glyph unicode="&#x3e;" horiz-adv-x="708" d="M113 170v57q0 51 39 74l378 250l-378 250q-39 23 -39 74v57q0 23 19 33q8 4 16 4q12 0 24 -8l518 -332q37 -23 37 -56v-47q0 -31 -27 -47l-528 -338q-12 -8 -24 -8q-8 0 -16 4q-19 10 -19 33z" />
<glyph unicode="?" horiz-adv-x="806" d="M41 1069q0 176 98.5 277.5t259.5 101.5q193 0 285 -98.5t92 -249.5q0 -145 -67 -228l-158 -190q-20 -25 -25.5 -49.5t-5.5 -81.5v-168q-2 -55 -63 -59h-80q-6 0 -15.5 2t-26 16t-16.5 41v168q0 145 62 219l137 164q59 74 60 166q0 90 -41 131t-131 41q-100 0 -132 -48 t-32 -155q-2 -55 -64 -59h-80q-6 0 -15 2t-25.5 16t-16.5 41zM313 59v95q0 27 16.5 43t39.5 16h102q23 0 39 -16.5t16 -42.5v-95q0 -27 -16 -43t-39 -16h-102q-23 0 -39.5 16t-16.5 43z" />
<glyph unicode="@" horiz-adv-x="1482" d="M-367 952l211 236l-211 108l15 4l671 191v104q0 4 1.5 11.5t12.5 19.5t32 12h92q31 0 47 -32l24 -56l131 37l25 6v-344v-10l-16 -18l10 -23l172 408q16 33 49 32h88q47 0 47 -43v-323l142 39l24 8v-27v-303v-16l-96 -103l586 166l24 6l-209 -237l209 -107l-14 -4 l-1012 -286l-24 -7v355l81 90l-278 -80l2 -170q0 -45 -45 -45h-59q-4 0 -12.5 1t-21 12t-12.5 32v127l-143 -39l-26 -8v2l-3 -2v26v318l97 104l-586 -166zM-307 989l577 164l49 51v266l-624 -178l178 -96zM-145 1309l2 6l6 2q4 0 4 -2l35 -74l-6 74q0 4 4 4l6 2q2 2 6 -4 l31 -66l-9 82q0 4 5 4l6 2q4 0 4 -4l8 -94l-4 -4l-10 -4q-4 0 -6 2l-27 57l6 -63l-2 -4l-12 -4q-4 0 -6 4zM-29 1247l2 96l2 5l13 4q2 0 4 -2l51 -84l-2 -4l-6 -2q-2 -2 -6 2l-15 24l-28 -8v-29q0 -4 -2 -4l-7 -2q-6 -2 -6 4zM-14 1292l22 6l-22 39v-2v-43zM23 1223l24 8 q29 6 35 -21q4 -12 -4 -20q14 -2 18 -19q8 -31 -20 -38l-27 -7zM33 1360q-2 4 2 4l8 2q4 2 6 -2l49 -61l-20 69q-2 4 2 4l6 2q4 2 4 -2l27 -90q0 -4 -4 -6l-9 -2q-2 0 -4 2l-49 63l21 -69q0 -4 -4 -6h-7q-2 -2 -4 2zM39 1214l8 -26l8 2q16 4 15 18q-6 14 -19 9zM49 1174 l10 -31l13 2q14 6 12 22q-4 14 -23 11zM61 225v60q0 4 2 4h7q2 0 2 -2l12 -25l10 25l2 2h6q2 0 2 -4v-60q0 -2 -2 -2h-4q-2 0 -2 2v47l-8 -22l-2 -2h-4q-2 0 -4 2l-8 22l2 -47q0 -2 -4 -2h-5q-2 0 -2 2zM61 82v31h76v28l74 -45l-74 -45v31h-76zM61 166v24h1352v-24h-1352z M61 315v27h1352v-27h-1352zM92 1239l2 4l6 2q4 0 4 -2l17 -59q8 -25 22 -19q16 4 9 27l-17 59l4 4l4 2q4 0 7 -2l16 -59q12 -37 -19 -45q-29 -6 -40 29zM111 1382q0 4 4 5l8 2q2 1 4 -3l49 -61l-20 70q0 4 4 4l6 2q2 2 4 -2l25 -90q2 -4 -2 -6l-9 -3q-4 0 -6 3l-49 61 l21 -68q2 -4 -3 -6l-6 -2q-4 0 -4 4zM113 225l18 62l2 2h8q2 0 2 -2l17 -62l-2 -2h-4q-2 0 -2 2l-5 17h-20l-4 -17q0 -2 -4 -2h-4q-2 0 -2 2zM129 252h16l-8 27zM164 1257q-3 3 -3 5t3 2l8 2q4 0 6 -2l31 -43h2l4 53q0 4 4 4l6 2h2q2 0 2 -4l-8 -98q0 -4 -2 -4l-6 -3 q-4 0 -4 3v28q-2 0 -4 2zM170 702l27 9l122 34l146 41l307 86l31 9l88 26l143 41l148 41v303l-31 -8l-117 -33l-137 -41l-66 -18l-256 -72l-16 -4l-14 -4l-226 -63l-149 -43v-299v-5zM170 225v64h16q20 0 21 -21q0 -12 -10 -18l6 -14l4 -5h2l2 -2v-4q0 -2 -2 -2h-2 q-6 0 -12 8l-9 17h-6v-23l-2 -2h-6q-2 0 -2 2zM180 258h6q10 0 10.5 10.5t-10.5 10.5h-6v-21zM184 1030l23 6v19zM207 1313v96l4 4l10 4q4 0 6 -2l49 -84l-2 -4l-6 -2q-2 0 -4 2l-14 25l-31 -9l2 -28l-2 -4l-8 -2h-2q-2 0 -2 4zM215 1038l10 4v33l-10 -12v-25zM217 244v24 q0 20 21 21q18 0 18 -17q0 -2 -2 -2l-2 -2l-4 2q0 10 -10.5 10.5t-10.5 -12.5v-24q0 -12 10.5 -12.5t10.5 12.5l2 2h4q2 0 2 -2q0 -23 -18 -23q-21 0 -21 23zM219 1358l23 6l-23 39v-45zM233 1044l13 5v47l-13 -13v-39zM242 1257q-3 7 -3 13q0 14 19 20q25 8 33 -16v-17 l-8 -16v-10l4 -10l-4 -7l-4 -2q-4 0 -7 5l-2 10q-4 10 0 16l6 14q2 6 0 13q-2 10 -14 8t-8 -16l-2 -5l-6 -2q-4 -2 -4 2zM248 125v2q0 4 2 4h35l2 -2v-4q0 -4 -2 -4h-13v-53l-2 -2h-4q-4 0 -4 2v53h-12zM254 1049l10 4v63l-10 -12v-55zM268 244v24q0 20 19 21q20 0 20 -21 v-24q0 -23 -20 -23q-19 0 -19 23zM272 1055l11 4v78l-11 -13v-69zM276 244q0 -12 10.5 -12.5t10.5 12.5v24q0 12 -10.5 12.5t-10.5 -12.5v-24zM276 1200q0 4 3 6l8 2q4 0 4 -4l2 -6q0 -4 -2 -6h-8q-4 -4 -4 2zM291 1061l12 2v94l-12 -12v-84zM297 68v59q0 4 2 4h4q2 -2 2 -4 v-18q4 4 10 4q12 0 13 -17v-28q0 -2 -2 -2h-4q-2 0 -3 2v28q0 8 -6 8q-8 0 -8 -8v-28l-2 -2h-4q-2 0 -2 2zM309 1067l10 2v76v22v7l-10 -9v-98zM309 1012q0 4 4 6l9 2q4 0 6 -2l55 -70l-23 78q-2 4 3 6h6q6 2 6 -2l28 -100q0 -4 -4 -6l-10 -2q-2 0 -4 2l-55 69l22 -78 q0 -4 -4 -4l-6 -2h-2q-2 0 -2 4zM315 240v16q0 29 31 29q29 0 29 -29v-8q0 -29 -25 -29q-20 0 -20 17q0 12 12 14l10 2v4q0 6 -6 6t-6 -4l-2 -4h-4q-2 0 -2 4q0 12 14 12t14 -16v-16q0 -4 -2 -5h-4q-2 2 -2 5v6l-10 -2q-4 0 -4 -6.5t14.5 -6.5t14.5 19v8q0 20 -20.5 20 t-20.5 -22v-14q0 -18 18 -25l2 -2v-4q0 -2 -4 -2q-27 6 -27 33zM338 78q0 10 12 12l10 4v4q0 6 -6 6t-6 -4t-4 -4h-2q-4 0 -4 4q0 12 16 13q14 0 15 -17v-28q0 -2 -2 -2h-5q-2 0 -2 2q-4 -4 -10 -5q-12 1 -12 15zM346 78q0 -6 6 -6q8 0 8 8v6l-10 -4q-4 0 -4 -4zM350 850 q-2 7 -2 13q0 19 21 24q25 6 32 -15q4 -4 -2 -6l-2 -2q-6 0 -6 2q-6 12 -18 8q-12 -2 -11 -20l11 -35q2 -16 18 -12q12 2 10 20l2 4l7 3q2 2 4 -3q6 -29 -19 -36q-29 -10 -35 22zM381 68v41q0 4 2 4h4q2 -2 2 -4q0 4 8 4q14 0 15 -17v-28l-2 -2h-4q-2 0 -3 2v28q0 8 -6 8 q-8 0 -8 -8v-28l-2 -2h-4q-2 0 -2 2zM385 225v64h31l4 -4v-2q0 -4 -4 -4h-21v-19h15l4 -2v-4q0 -2 -4 -2h-15v-27l-4 -2h-4q-2 0 -2 2zM397 1040l54 15l6 -2l2 -6q0 -4 -4 -7l-39 -10l8 -33l29 9l6 -2l2 -7q2 -4 -4 -6l-29 -8l8 -33l41 11l4 -3l2 -6q2 -4 -2 -6l-55 -14z M414 895l2 4l4 2q4 0 6 -4l8 -33l29 6l-8 35l2 4l6 2q4 2 4 -2l22 -84l-2 -4l-6 -2q-2 -2 -4 2l-10 39l-29 -8l11 -39l-3 -4l-6 -2q-4 0 -4 4zM424 68v59q0 4 2 4h4q2 -2 2 -4v-33l12 17l5 2h4l2 -4l-13 -15l15 -26v-2h-6q0 -2 -2 0l-13 22l-4 -6v-14l-2 -2h-4q-2 0 -2 2z M426 244v24q0 20 18 21q20 0 21 -21v-24q0 -23 -21 -23q-18 0 -18 23zM434 244q0 -12 10 -13q12 0 13 13v24q0 12 -13 13q-10 0 -10 -13v-24zM455 1350l6 6l-6 16v-22zM463 1108l10 4v227l-4 -4l-6 -6v-221zM463 80l2 2h4q2 0 2 -4q0 -6 8 -6q4 0 4 6q0 4 -4 6l-6 4 q-8 6 -8 12q0 12 14 13q12 0 13 -11l-3 -4h-2q-2 0 -4 2q0 4 -4 4q-6 0 -6 -4q0 -2 4 -6l6 -4q10 -4 11 -12q0 -14 -15 -15q-16 1 -16 17zM475 1061l53 16q4 0 7 -4l2 -6q0 -4 -5 -4l-38 -12l8 -31l30 8l5 -4l2 -6q2 -4 -4 -4l-29 -8l10 -33l39 10l6 -4l2 -6q0 -4 -4 -4 l-55 -15zM477 225v64h17q20 0 20 -21q0 -12 -12 -18l8 -14q0 -4 4 -5h2l2 -2v-4q0 -2 -2 -2h-2q-8 0 -14 8l-6 17h-7v-23l-4 -2h-2q-4 0 -4 2zM481 1114l13 4v244l-13 -12v-236zM487 258h7q10 0 10 10.5t-10 10.5h-7v-21zM500 1120l12 2v260l-12 -12v-250zM500 829l2 91l2 4 l12 2q2 2 4 -2l47 -76q0 -4 -4 -6l-4 -2q-4 0 -6 2l-12 22l-27 -6v-27q0 -4 -4 -4l-6 -2h-2q-2 0 -2 4zM514 870l21 7l-21 36v-43zM520 1126l10 2v275l-10 -12v-265zM522 106v3q0 2 4 2h2v4q0 16 15 16h2l2 -2v-4q0 -2 -2 -2h-2q-6 0 -6 -8v-4h8q2 0 2 -2v-3q0 -4 -2 -4h-8 v-34l-2 -2h-5q-2 0 -2 2v34h-2q-4 0 -4 4zM528 223v66h33l4 -4v-2q0 -4 -2 -4h-24v-19h16l4 -2v-4q0 -2 -4 -2h-16v-21h22l4 -2v-4q0 -2 -2 -2h-35zM535 1532l28 -66l94 99zM539 1130l12 5v288l-12 -12v-281zM551 80v14q0 18 16.5 18.5t16.5 -18.5v-14q0 -16 -16.5 -16 t-16.5 16zM553 1083l31 9q31 8 41 -27l10 -39q12 -35 -23 -43l-30 -8zM557 1137l12 2v303l-12 -10v-295zM557 938l23 6q25 6 34 -20q2 -20 -8 -29l15 -18q2 -4 8 -5h2l4 -2l2 -6q0 -2 -4 -4h-2q-12 -2 -23 8l-14 21l-10 -2l10 -33l-4 -6h-4q-4 -2 -6 2zM561 80q0 -8 6 -8 q8 0 8 8v14q0 10 -8 10q-6 0 -6 -10v-14zM571 930l9 -31l10 2q16 4 10 21q-2 14 -18 10zM571 1073l23 -80l14 4q18 6 13 25l-11 39q-6 20 -22 16zM573 285l2 4h5l2 -2l12 -54h2l12 54l2 2h4l2 -4l-14 -60l-2 -2h-8q-4 0 -4 2zM578 1147l10 12v305l-10 -12v-305zM594 68v41 q0 4 2 4h4q2 -2 2 -4q4 4 10 4l2 -2v-5q0 -2 -2 -2q-10 0 -10 -8v-28l-2 -2h-4q-2 0 -2 2zM596 1167l10 13v303l-10 -10v-306zM614 1188l13 12v305l-13 -12v-305zM627 223v66h32l5 -4v-2q0 -4 -5 -4h-24v-19h18l4 -2v-4q0 -2 -4 -2h-18v-21h24l5 -2v-4q0 -2 -5 -2h-32z M635 1208l10 13v303l-10 -13v-303zM637 80v29q0 4 4 4h2q4 0 4 -4v-29q0 -8 6 -8q8 0 9 8v29l2 4h4q2 0 2 -4v-41q0 -2 -2 -2h-2q-4 0 -4 2q-4 -4 -9 -5q-16 1 -16 17zM643 868v90l4 5l10 2q2 2 5 -2l47 -78l-2 -4l-7 -2q-4 0 -4 2l-14 24l-27 -8v-27q0 -4 -2 -4l-6 -2 q-4 0 -4 4zM653 1229l9 10l2 2v2v21v280l-11 -10v-305zM655 911l21 4l-21 37v-41zM670 1110q-2 4 4 6l8 2q4 2 6 -2l29 -35l6 45l4 4l8 3q4 2 6 -2l27 -101q2 -4 -2 -4l-6 -2q-6 -2 -6 2l-21 78l-4 -39l-2 -4l-8 -2q-4 0 -6 2l-25 31l25 -76q0 -6 -4 -6l-7 -2q-4 0 -6 4z M674 225v64h16q20 0 21 -21q0 -12 -11 -18l7 -14l4 -5h2l2 -2v-4q0 -2 -2 -2h-2q-10 0 -13 8l-8 17h-6v-23l-2 -2h-6q-2 0 -2 2zM680 80l2 2h2q4 0 4 -4q0 -6 6 -6t6 6q0 4 -4 6l-8 4q-6 4 -6 12q0 12 12.5 12.5t14.5 -10.5l-2 -4h-2q-4 0 -5 2q0 4 -6 4q-4 0 -4 -4t4 -6 l6 -4q8 -4 9 -12q0 -14 -14.5 -14t-14.5 16zM684 451l14 14v303l-14 -16v-301zM684 258h6q10 0 10 10.5t-10 10.5h-6v-21zM690 428l963 272l-178 99l180 207l-578 -164l-43 -47v-199q0 -4 -1 -12.5t-13 -20.5t-33 -12h-57q-4 0 -12.5 1t-20.5 12t-12 32v39zM705 948 q-2 7 -2 12q0 18 20 23q23 8 33 -14q0 -2 -2 -4l-4 -2q-4 -4 -7 0q-4 14 -16 10q-16 -6 -10 -23l8 -33q6 -16 20 -14q14 6 9 21l4 6h4q4 2 6 -2q6 -29 -20 -37q-25 -6 -35 22zM707 473l10 12v303l-10 -12v-303zM719 225l18 62l2 2h9q2 0 2 -2l18 -62l-2 -2h-6l-2 2l-4 17 h-21l-4 -17l-2 -2h-4q-4 0 -4 2zM721 68v41l2 4h4q2 0 2 -4v-41q0 -2 -2 -2h-4q-2 0 -2 2zM721 123v4q0 4 2 4h4q4 0 4 -4v-4q0 -2 -4 -2h-4q-2 0 -2 2zM725 494l10 12v303l-10 -12v-303zM735 252h17l-9 27zM741 68v41q0 4 2 4h5q2 -2 2 -4q0 4 8 4q14 0 14 -17v-28 q0 -2 -2 -2h-4q-2 0 -2 2v28q0 8 -6 8q-8 0 -8 -8v-28l-2 -2h-5q-2 0 -2 2zM743 514l11 12v303l-11 -12v-303zM762 535l12 12v303l-12 -12v-303zM762 985v4q-2 4 2 6l47 13l4 -2l2 -7q2 -4 -2 -4l-18 -6l20 -74l-2 -4l-6 -2q-2 -2 -4 2l-21 76l-16 -4zM770 1106q-2 8 -2 14 q0 24 25 31q33 8 43 -27l10 -41q10 -35 -23 -43q-33 -12 -41 27zM778 225v60q0 4 2 4h6q2 0 2 -2l21 -47l-2 45q0 4 4 4h4q2 0 2 -4v-60q0 -2 -2 -2h-6q-2 0 -2 2l-21 47v-47q0 -2 -2 -2h-4q-2 0 -2 2zM782 555l11 12v291l-11 -4v-299zM784 59q0 2 2 2h2q4 0 5 -2q0 -6 8 -6 q6 0 6 8v7q-4 -4 -8 -5q-14 0 -15 17v16q0 16 15 17q4 0 8 -4v2l2 2h4l2 -2v-50q0 -16 -14 -16q-17 0 -17 14zM784 1110l13 -39q6 -23 22 -16q18 4 12 24l-12 41q-6 20 -22 17q-15 -7 -13 -27zM793 80q0 -8 6 -8q8 0 8 8v16q0 8 -8 8q-6 0 -6 -8v-16zM801 575l12 11v278 l-12 -4v-285zM819 596l12 12v260l-12 -2v-270zM827 1012l47 14l5 -4l2 -4q0 -4 -2 -6l-35 -8l8 -27l25 6l4 -2l2 -6q2 -2 -2 -4l-27 -6l8 -29l35 10l4 -4l2 -4q0 -4 -4 -4l-45 -12zM831 223v66h19q18 0 18 -23v-22q0 -20 -18 -21h-19zM840 616l10 13v245l-10 -4v-254z M840 1217l57 16l2 131zM840 231h10q10 0 10 13v22q0 12 -10 13h-10v-48zM846 1163l26 8q33 8 43 -22q6 -25 -10 -37l17 -20q6 -6 10 -7l2 2l6 -4l2 -4q2 -6 -4 -6l-2 -2q-12 -2 -27 12l-18 23l-12 -4l12 -39l-4 -4l-6 -2q-4 -2 -6 4zM850 68v59q0 4 4 4h4q2 0 4 -2l10 -25 l11 25l2 2h6q4 0 4 -4v-59q0 -2 -4 -2h-4q-2 0 -2 2v47l-8 -23q0 -2 -3 -2h-4q-2 0 -2 2l-10 23l2 -47q0 -2 -4 -2h-2q-4 0 -4 2zM858 637l10 12v230l-10 -2v-240zM866 1153l9 -35l12 2q18 6 12 25q-2 16 -20 12zM877 657l8 9l2 122l2 21v8v68l-12 -2v-226zM881 244v24 q0 20 20 21q14 0 19 -17q0 -2 -2 -2l-5 -2q-2 2 -4 2q0 10 -8 11q-10 0 -10 -13v-24q0 -12 10 -12.5t10 12.5l2 2h5q2 0 2 -2q0 -23 -19 -23q-20 0 -20 23zM895 1030l23 6q25 8 34 -18q6 -20 -10 -31l16 -18q4 -4 9 -4l2 2l4 -4l2 -5q0 -4 -4 -4l-2 -2q-8 -2 -23 11l-14 18 l-10 -2l8 -33l-2 -4l-4 -2q-4 -2 -6 2zM905 80v16q0 16 17 17q14 0 14 -15v-6q0 -4 -4 -4l-19 -4v-4q0 -8 7 -8q8 0 8 8l4 2h2q2 0 2 -4q0 -14 -16 -15q-15 1 -15 17zM909 1022l9 -31l10 2q16 6 10 21q-2 14 -18 10zM913 92l15 2v4q0 6 -6 6q-8 0 -9 -8v-4zM930 244v24 q0 20 20 21q18 0 19 -21v-24q0 -23 -19 -23q-20 0 -20 23zM930 1186l55 16q4 0 6 -4v-6q2 -4 -2 -4l-39 -12l8 -31l29 8l6 -4l2 -6q0 -4 -4 -4l-28 -9l8 -32l39 10l6 -2l2 -6q2 -4 -2 -6l-55 -15zM938 244q0 -12 12 -13q10 0 11 13v24q0 12 -11 13q-12 0 -12 -13v-24z M948 80v47l2 4h4q2 0 2 -4v-47q0 -8 7 -8h2l2 -2v-4q0 -2 -2 -3h-2q-15 1 -15 17zM967 1026q-1 5 -2 8q0 16 20 23q27 6 33 -15q4 -4 -2 -6l-4 -2q-4 0 -6 2q-6 12 -17 6q-10 -2 -10 -12q4 -8 8 -10l27 -6q14 0 18 -17q6 -25 -20 -34q-27 -6 -35 20l4 4l4 2q4 0 6 -2 q2 -14 17 -10q12 2 12 16q-4 8 -12 8l-21 7q-14 2 -20 18zM973 68v59q0 4 2 4h4q2 -2 2 -4v-18q4 4 8 4q14 0 15 -17v-16q0 -16 -15 -17q-4 0 -8 5l-2 -2h-4q-2 0 -2 2zM981 80q0 -8 8 -8q6 0 6 8v16q0 8 -6 8q-8 0 -8 -8v-16zM981 246v39l2 4h4q2 0 2 -4v-39 q0 -14 10.5 -14.5t10.5 14.5v39l4 4h2q4 0 4 -4v-39q0 -25 -21 -25q-18 0 -18 25zM1014 80v14q0 18 16 19q14 0 14 -19v-14q0 -16 -14 -17q-16 1 -16 17zM1022 80q0 -8 8 -8q6 0 6 8v14q0 10 -6 10q-8 0 -8 -10v-14zM1028 1042q-1 5 -1 10q0 16 17 21q5 1 9 1q15 0 22 -17 q0 -10 -2 -17l-6 -14v-8l2 -10l-2 -7h-4q-4 -2 -6 3l-2 10q-4 6 0 14l6 14q2 6 0 11q-2 10 -14 8q-10 -2 -7 -17l-2 -4l-6 -2q-4 0 -4 4zM1032 225v60q0 4 2 4h6q2 0 2 -2l21 -47v45q0 4 2 4h4q2 0 2 -4v-60q0 -2 -2 -2h-6q-2 0 -4 2l-19 47v-47q0 -2 -2 -2h-4q-2 0 -2 2z M1034 825l4 4l2 2v97l-6 -2v-76v-21v-4zM1049 842l10 10v82l-10 -4v-88zM1055 80v29l2 4h4q2 0 2 -4v-29q0 -8 8 -8t8 8v29q0 4 2 4h4q2 -2 2 -4v-41l-2 -2h-4q-2 0 -2 2q-4 -4 -10 -5q-14 1 -14 17zM1061 989q0 4 2 4l6 2q6 0 6 -4v-6q2 -2 -2 -4l-6 -2q-4 0 -4 4z M1067 860l12 12v66l-12 -2v-76zM1071 803l2 6l6 2q4 0 4 -2l37 -74l-6 74q-2 4 2 4l6 2q4 0 6 -4l33 -66l-8 82l2 5l8 2h2q2 0 2 -5l9 -94l-5 -6l-12 -2q-2 -2 -4 2l-29 59l9 -65l-4 -6l-13 -2q-2 -2 -4 2zM1081 283v2q0 4 2 4h35l2 -4v-2q0 -4 -2 -4h-12v-54l-4 -2h-4 q-2 0 -2 2v54h-13zM1085 883l13 10v51l-13 -2v-59zM1098 68v41l2 4h4q2 0 2 -4q4 4 10 4q14 0 14 -17v-28q0 -2 -4 -2h-2q-4 0 -4 2v28q0 8 -6 8q-8 0 -8 -8v-28q0 -2 -2 -2h-4q-2 0 -2 2zM1106 901l10 12v37l-10 -4v-45zM1110 682q-2 4 2 6l8 2q4 0 6 -2l27 -33l4 41l4 4 l8 2q4 2 7 -2l24 -90q2 -6 -2 -6l-6 -2q-4 0 -6 4l-19 70l-4 -35q0 -4 -2 -4l-6 -2q-4 0 -4 2l-23 29l21 -72q2 -2 -4 -4l-4 -2q-4 -2 -6 4zM1124 924l13 10v20l-13 -2v-28zM1130 225v60l3 4h4q2 0 2 -4v-60l-2 -2h-4q-3 0 -3 2zM1141 68v41q0 4 4 4h2q4 0 4 -4q4 4 8 4 l4 -2v-4q-2 -2 -4 -3q-8 0 -8 -8v-28q0 -2 -4 -2h-2q-4 0 -4 2zM1145 942l16 21l-16 -7v-14zM1151 225v60q0 4 2 4h6q2 0 4 -2l19 -47v45q0 4 2 4h4q2 0 2 -4v-60q0 -2 -2 -2h-6q-2 0 -2 2l-21 47v-47q0 -2 -2 -2h-4q-2 0 -2 2zM1165 80v16q0 16 16.5 16.5t16.5 -14.5v-6 q0 -4 -4 -4l-18 -4v-4q0 -8 6 -8q8 0 8 8l2 2h2q4 0 4 -4q0 -14 -16.5 -14t-16.5 16zM1176 92l14 2v4q0 6 -8 6q-6 0 -6 -8v-4zM1180 840l24 6q33 8 39 -21q4 -20 -8 -32l16 -19q2 -6 9 -6l2 2l6 -4v-4q2 -4 -2 -6h-2q-12 -4 -25 8l-18 22l-11 -4l11 -34l-2 -5l-7 -2 q-4 -2 -6 2zM1194 711l49 14l6 -4l2 -4q0 -4 -4 -6l-37 -11l11 -28l26 8l4 -4l2 -4q2 -4 -2 -6l-28 -9l10 -28l35 10l6 -4l2 -4q0 -4 -4 -6l-49 -15zM1198 829l8 -32l13 4q16 4 10 20q-2 16 -21 13zM1202 244v24q0 20 21 21q14 0 18 -17q0 -2 -2 -2l-4 -2q-2 0 -2 1t-2 1 q0 10 -8 11q-10 0 -11 -13v-24q0 -12 10.5 -12.5t10.5 12.5v4h-10l-2 2v4q0 2 2 2h16q2 0 2 -2v-10q0 -23 -18 -23q-21 0 -21 23zM1208 69.5q0 6.5 4 6.5q6 0 6.5 -6.5t-6.5 -6.5q-4 0 -4 6.5zM1208 129h11l-2 -47h-7zM1249 225v4l2 2h6q2 0 3 -2v-4l-3 -2h-6q-2 0 -2 2z M1257 856l5 6l4 2q4 0 6 -4l26 -90l-4 -6l-6 -2q-4 0 -4 4zM1262 96l73 45v-28h78v-31h-78v-31zM1266 727l2 4l6 2q4 2 6 -4l18 -67l-2 -5l-6 -2q-4 -2 -6 2zM1268 244v24q0 20 20 21q18 0 19 -17q0 -2 -2 -2l-2 -2l-5 2q0 10 -10 10.5t-10 -12.5v-24q0 -12 10 -12.5 t10 12.5l2 2h5q2 0 2 -2q0 -23 -19 -23q-20 0 -20 23zM1284 864q-2 4 2 4l51 15l6 -2v-6q2 -4 -2 -5l-18 -6l23 -82l-2 -4l-7 -2q-4 0 -6 2l-22 82l-19 -4l-4 2zM1288 641q0 2 4 6l6 2q2 0 7 -4l2 -6q0 -2 -4 -6h-7q-2 -2 -6 2zM1317 244v24q0 20 20.5 20.5t20.5 -20.5v-24 q0 -23 -20.5 -23t-20.5 23zM1327 244q0 -12 10.5 -12.5t10.5 12.5v24q0 12 -10.5 12.5t-10.5 -12.5v-24zM1356 889l51 14l4 -2l2 -6q2 -4 -2 -6l-37 -10l8 -29l27 8l4 -4l2 -4q2 -4 -2 -6l-26 -8l8 -29l35 10l6 -2l2 -6q0 -4 -2 -6l-52 -15zM1370 225v60q0 4 2 4h6q2 0 2 -2 l11 -25l10 25l4 2h4q4 0 4 -4v-60q0 -2 -4 -2h-2q-4 0 -4 2l2 47l-8 -22l-2 -2h-6q-2 0 -3 2l-8 22v-47q0 -2 -2 -2h-4q-2 0 -2 2z" />
<glyph unicode="A" horiz-adv-x="1282" d="M150 66l372 1318q14 49 60 50h170q47 0 61 -50l369 -1318q1 -8 1 -16q0 -44 -53 -50h-94q-41 0 -57 49l-96 395h-430l-103 -395q-14 -49 -55 -49h-96q-8 0 -18.5 2t-24.5 18q-9 10 -9 26q0 10 3 20zM504 639h325l-159 600h-4z" />
<glyph unicode="B" horiz-adv-x="1085" d="M184 0v1434h363q209 0 312.5 -106.5t103.5 -285t-127 -274.5q164 -88 163 -334q0 -182 -108.5 -308t-323.5 -126h-383zM383 193h184q106 0 170 62t64 175q0 131 -65.5 180t-184.5 49h-168v-466zM383 848h131q117 0 182.5 50t65.5 144q0 195 -215 195h-164v-389z" />
<glyph unicode="C" horiz-adv-x="1110" d="M164 451v530q0 209 110.5 338t317.5 129q188 0 288.5 -96.5t123.5 -251.5q1 -8 1 -15q0 -41 -42 -55l-72 -18q-29 -8 -54.5 5t-29.5 40q-10 92 -64.5 144t-150.5 52q-119 0 -174.5 -65.5t-55.5 -206.5v-530q0 -141 55.5 -206t174.5 -65q221 0 221 271q4 53 57 59h82 q6 0 16.5 -2t27 -16.5t16.5 -40.5q0 -211 -101.5 -338t-318.5 -127q-207 0 -317.5 128t-110.5 337z" />
<glyph unicode="D" horiz-adv-x="1144" d="M184 0v1434h410q217 0 319.5 -127t102.5 -336v-508q0 -209 -102.5 -336t-319.5 -127h-410zM383 193h211q223 0 223 270v508q0 270 -223 270h-211v-1048z" />
<glyph unicode="E" horiz-adv-x="1071" d="M184 0v1434h723q53 -4 60 -58v-80v-6q0 -4 -3 -14t-9.5 -17.5t-17.5 -13.5t-28 -6h-526v-420h389q53 -4 59 -57v-80v-6q0 -4 -3 -14.5t-9 -17.5t-17 -13t-28 -6h-391v-430h524q53 -4 60 -58v-80v-6q0 -4 -3 -14t-9.5 -17.5t-17.5 -13.5t-28 -6h-725z" />
<glyph unicode="F" horiz-adv-x="1030" d="M184 59v1375h684q53 -4 60 -58v-84q0 -6 -3 -15t-17.5 -23.5t-39.5 -14.5h-485v-420h350q53 -4 60 -57v-84q0 -6 -3.5 -15.5t-17.5 -23.5t-39 -14h-350v-570q-2 -25 -17.5 -38t-29.5 -15l-12 -2h-80q-6 0 -16.5 2t-27 16t-16.5 41z" />
<glyph unicode="G" horiz-adv-x="1099" d="M143 453v530q0 211 104.5 338t309.5 127q188 0 288.5 -95.5t123.5 -248.5q2 -10 1 -18q0 -42 -42 -52l-78 -20q-29 -8 -50.5 6t-25.5 39q-31 195 -217 194q-115 0 -165 -63.5t-50 -206.5v-530q0 -141 55.5 -207t173.5 -66q221 0 222 273v77h-211q-53 4 -60 60v76 q0 6 2 16t16.5 26.5t41.5 16.5h350q6 0 16 -2t26.5 -16.5t16.5 -40.5v-213q0 -211 -101.5 -339t-318.5 -128q-207 0 -317.5 129t-110.5 338z" />
<glyph unicode="H" horiz-adv-x="1181" d="M184 59v1315q4 53 58 60h80q6 0 16 -2t27.5 -16.5t17.5 -41.5v-534h453v534q4 53 57 60h80q6 0 16 -2.5t27.5 -16.5t17.5 -41v-1315q-4 -53 -59 -59h-80q-6 0 -16.5 2t-26.5 16.5t-16 40.5v586h-453v-586q-4 -53 -59 -59h-80q-6 0 -16.5 2t-27 16t-16.5 41z" />
<glyph unicode="I" horiz-adv-x="493" d="M184 59v1315q4 53 58 60h80q6 0 16 -2t27.5 -16.5t17.5 -41.5v-1315q-4 -53 -59 -59h-80q-6 0 -16.5 2t-27 16t-16.5 41z" />
<glyph unicode="J" horiz-adv-x="757" d="M113 45v74q0 6 2 16t17 27.5t42 17.5q276 0 277 273v921q4 53 57 60h82q6 0 16 -2t26.5 -16.5t16.5 -41.5v-921q0 -205 -126 -336t-349 -131q-27 0 -42 14t-17 29z" />
<glyph unicode="K" horiz-adv-x="1157" d="M184 59v1315q4 53 58 60h82q6 0 16 -2t26.5 -16.5t16.5 -41.5v-528l387 547q20 41 64 41h92h10q6 0 19.5 -5.5t21.5 -13.5t8 -25.5t-14 -39.5l-371 -533l287 -512q35 -59 59.5 -84.5t59.5 -25.5h10q55 -4 61 -62v-72q0 -6 -2 -16t-17.5 -27.5t-41.5 -17.5h-41 q-90 0 -150.5 49t-130.5 170l-237 410l-74 -105v-465q-4 -53 -57 -59h-84q-6 0 -15.5 2t-26 16t-16.5 41z" />
<glyph unicode="L" horiz-adv-x="917" d="M184 0v1374q4 53 58 60h82q6 0 16 -2t26.5 -16.5t16.5 -41.5v-1179h408q27 0 42 -14.5t17 -28.5l2 -15v-78q0 -6 -2 -16t-17.5 -26.5t-41.5 -16.5h-607z" />
<glyph unicode="M" horiz-adv-x="1282" d="M184 59v1315q0 6 2 16.5t16.5 27t41.5 16.5h121q41 0 63 -45l229 -537l228 537q20 45 63 45h117q6 0 16.5 -2.5t27.5 -16.5t17 -41v-1315q0 -6 -2 -16t-17 -26.5t-42 -16.5h-76q-6 0 -16 2t-27.5 16.5t-17.5 40.5l20 1012l-182 -459q-18 -43 -57 -43h-93q-43 0 -61 43 l-193 469l21 -1022q0 -6 -2 -16t-16.5 -26.5t-40.5 -16.5h-80q-6 0 -16.5 2t-27 16t-16.5 41z" />
<glyph unicode="N" horiz-adv-x="1200" d="M184 59v1315q0 6 2 16.5t16.5 27t41.5 16.5h123q41 0 63 -45l432 -1033l-12 1018q0 6 2 16.5t16.5 27t40.5 16.5h80q6 0 16.5 -2t27 -16.5t16.5 -41.5v-1315q0 -6 -2.5 -16t-16.5 -26.5t-41 -16.5h-123q-45 0 -63 43l-430 1034l10 -1018q0 -6 -2 -16t-16.5 -26.5 t-40.5 -16.5h-80q-6 0 -16.5 2t-27 16t-16.5 41z" />
<glyph unicode="O" horiz-adv-x="1142" d="M164 451v530q0 209 104.5 338t321.5 129t320.5 -129t103.5 -338v-530q0 -209 -103.5 -337t-320.5 -128t-321.5 128t-104.5 337zM362 451q0 -270 228 -271q225 0 225 271v530q0 272 -225 272q-227 0 -228 -272v-530z" />
<glyph unicode="P" horiz-adv-x="1081" d="M184 59v1375h344q219 0 323.5 -120t104.5 -325v-51q0 -205 -104 -323.5t-324 -118.5h-145v-437q-4 -53 -57 -59h-82q-6 0 -16.5 2t-27 16t-16.5 41zM383 688h145q229 0 230 250v51q0 254 -230 254h-145v-555z" />
<glyph unicode="Q" horiz-adv-x="1187" d="M164 451v530q0 209 104.5 338t321.5 129t321.5 -129t104.5 -338v-530q0 -186 -72 -263h74q25 0 40 -14t17 -27l2 -14v-72q0 -6 -2 -16t-16.5 -27.5t-40.5 -17.5h-43q-168 0 -191 25q-82 -39 -194 -39q-217 0 -321.5 128t-104.5 337zM365 451q0 -270 225 -271q35 0 51 4 l-96 154q-14 24 -14 40q0 33 53 40l14 2h74q43 0 61 -33l55 -88q27 63 27 152v530q0 272 -225 272t-225 -272v-530z" />
<glyph unicode="R" horiz-adv-x="1150" d="M186 59v1375h361q428 0 428 -426q0 -166 -61.5 -260.5t-186.5 -145.5l147 -311q55 -96 107 -96h31q27 0 41 -15.5t16 -32.5l2 -14v-72q0 -6 -2 -16t-16.5 -27.5t-40.5 -17.5h-43q-90 0 -150.5 49t-130.5 172l-160 348h-143v-510q-4 -53 -57 -59h-82q-6 0 -16.5 2t-27 16 t-16.5 41zM385 764h162q121 0 175 60.5t54 187.5q0 131 -57 180t-172 49h-162v-477z" />
<glyph unicode="S" horiz-adv-x="1036" d="M111 406q4 53 59 59h82q6 0 15 -2t25.5 -16.5t16.5 -40.5q0 -125 64.5 -175.5t156.5 -50.5q115 0 172.5 64.5t57.5 148.5q0 117 -129 182l-295 152q-211 109 -211 354q0 170 116.5 268.5t288.5 98.5q178 0 283 -92t127 -244q1 -8 1 -14q0 -41 -42 -56l-72 -18 q-16 -4 -28 -4q-44 0 -56 49q-23 96 -71.5 137t-141.5 41q-106 0 -156 -51t-50 -121q0 -119 86 -164l352 -184q92 -49 144 -139t52 -195q0 -178 -114.5 -292.5t-313.5 -114.5q-70 0 -138 21.5t-133.5 66.5t-106.5 131t-41 201z" />
<glyph unicode="T" horiz-adv-x="1026" d="M102 1296v78q0 6 2 16.5t16.5 27t41.5 16.5h737q53 -4 59 -58v-78q0 -6 -2 -16t-16 -26.5t-41 -16.5h-270v-1180q-4 -53 -58 -59h-82q-6 0 -16 2t-26.5 16.5t-16.5 40.5v1180h-268q-54 4 -60 57z" />
<glyph unicode="U" horiz-adv-x="1114" d="M154 518v856q4 53 57 60h82q6 0 16 -2t26.5 -16.5t16.5 -41.5v-866q0 -184 53.5 -256t174.5 -72q111 0 167 74t56 254v866q4 53 57 60h82q6 0 16.5 -2t26.5 -16.5t16 -41.5v-856q0 -233 -103 -382.5t-318 -149.5q-211 0 -318.5 149.5t-107.5 382.5z" />
<glyph unicode="V" horiz-adv-x="1136" d="M115 1368q-1 7 -1 14q0 47 52 52h92q41 0 57 -50l273 -1128h14l268 1128q14 49 58 50h92q8 0 18.5 -2t25.5 -19q10 -11 10 -26q0 -8 -3 -19l-330 -1319q-6 -23 -21 -35t-28 -14h-12h-172q-51 0 -64 51z" />
<glyph unicode="W" horiz-adv-x="1583" d="M123 1368q-1 6 -1 11q0 49 52 55h92q45 0 58 -50l200 -1128l189 1018q12 59 63 59h86q53 0 66 -59l186 -1018l203 1130q12 49 57 50h92q8 0 18.5 -2t24.5 -19q10 -11 10 -29q0 -7 -1 -16l-252 -1319q-4 -23 -20.5 -36t-28.5 -15h-15h-172q-53 0 -67 57l-144 887 l-145 -893q-4 -23 -20.5 -36t-30.5 -15h-13h-174q-49 0 -61 51z" />
<glyph unicode="X" horiz-adv-x="1210" d="M143 66l392 714l-324 588q-12 23 -14 37t10 20.5t22.5 7.5t32.5 1h90q41 0 62 -35l235 -434l234 434q18 35 61 35h90q23 0 33 -1t22.5 -7.5t10.5 -20.5t-15 -37l-325 -600l389 -702q12 -23 14 -37q0 -2 1 -4q0 -11 -11 -17q-12 -6 -22.5 -7t-32.5 -1h-90q-43 0 -62 35 l-303 545l-297 -545q-20 -35 -61 -35h-90q-23 0 -33 1t-23 7q-11 5 -10 17q-1 14 14 41z" />
<glyph unicode="Y" horiz-adv-x="1144" d="M130 1421q9 12 42 13h113q43 0 57 -50l283 -708h20l252 708q16 49 57 50h99q18 0 28.5 -2t24.5 -18q7 -7 7 -18q0 -12 -9 -28l-479 -1319q-12 -33 -24.5 -41t-33.5 -8h-94q-18 0 -28.5 2t-24.5 17.5t2 46.5l133 364h-18q-25 0 -37 31l-365 907q-9 25 -9 39q0 9 4 14z" />
<glyph unicode="Z" horiz-adv-x="1140" d="M154 53v84q0 23 10 43l602 1059h-553q-53 4 -59 57v84q0 6 3 15.5t17 24t39 14.5h735q6 0 15.5 -3.5t23.5 -17.5t14 -39v-90q0 -20 -10 -43l-600 -1046h572q53 -4 59 -58v-84q0 -6 -3 -15t-17.5 -23.5t-38.5 -14.5h-750q-25 0 -39 13.5t-18 27.5z" />
<glyph unicode="[" horiz-adv-x="589" d="M86 -434v2068h291q16 0 26.5 -9t10.5 -19l2 -9v-124q0 -4 -1 -10.5t-11.5 -16.5t-26.5 -10h-92v-1672h92q16 0 26.5 -8t10.5 -16l2 -8v-131v-2q0 -2 -1 -6l-2 -6q-1 -3 -4 -7t-7.5 -7t-10.5 -5t-14 -2h-291z" />
<glyph unicode="\" horiz-adv-x="634" d="M-43 1446q-4 12 -4 22q0 37 55 37h58q35 0 51 -11t28 -48l494 -1458q4 -12 4 -23q0 -37 -55 -37h-56q-35 0 -51 11.5t-28 48.5z" />
<glyph unicode="]" horiz-adv-x="557" d="M86 -268q0 33 39 32h92v1672h-92q-16 0 -26.5 9t-12.5 17v11v124q0 4 1 10.5t11.5 16.5t26.5 10h291v-2068h-291q-16 0 -26.5 8t-12.5 16v11v131z" />
<glyph unicode="_" horiz-adv-x="1118" d="M92 -111q0 25 17.5 41.5t42.5 16.5h895q27 0 43 -16.5t16 -41.5v-59q0 -23 -16.5 -39t-42.5 -16h-895q-27 0 -43.5 16t-16.5 39v59z" />
<glyph unicode="a" horiz-adv-x="923" d="M113 280.5q0 122.5 56 191.5t198 103l243 60v86q0 63 -42 104t-105 41q-68 0 -102.5 -29.5t-34.5 -76.5q0 -27 -15.5 -43.5t-40.5 -16.5h-75q-25 0 -40.5 16.5t-15.5 43.5q0 125 91.5 201.5t232.5 76.5t237.5 -94t96.5 -268v-617q0 -27 -16.5 -43t-39.5 -16h-71 q-23 0 -39.5 16.5t-16.5 42.5v19q-27 -41 -85 -66.5t-119 -25.5q-123 0 -210 86t-87 208.5zM299 289q0 -51 37 -91t94 -40q76 0 128 60.5t52 133.5v103l-215 -52q-96 -22 -96 -114z" />
<glyph unicode="b" horiz-adv-x="980" d="M164 59v1315q0 27 16.5 43.5t38.5 16.5h76q23 0 39 -16.5t16 -43.5v-411q51 76 189 75q147 0 230 -92t83 -266v-346q0 -150 -89 -249t-233 -99q-131 0 -184 92v-19q0 -27 -16.5 -43t-38.5 -16h-72q-23 0 -39 16t-16 43zM348 324q0 -74 47 -120t125 -46q68 0 107 41 t39 125v370q0 172 -154 172q-84 0 -124 -51t-40 -121v-370z" />
<glyph unicode="c" d="M123 352v303q0 195 102.5 289t243.5 94q117 0 208 -57t116 -186q1 -7 1 -14q0 -40 -44 -52l-70 -16q-11 -3 -21 -3q-39 0 -49 48q-23 109 -141 108q-82 0 -121 -50t-39 -161v-303q0 -195 160 -194q74 0 115 45t41 104q0 27 15 42.5t30 17.5l14 2h64q63 0 63 -64 q0 -86 -33 -151.5t-86 -100.5t-109.5 -51t-113.5 -16q-170 0 -258 93t-88 273z" />
<glyph unicode="d" horiz-adv-x="948" d="M123 332v346q0 162 76.5 261t236.5 99q45 0 101.5 -20.5t85.5 -54.5v411q4 53 57 60h76q23 0 38 -16.5t15 -43.5v-1315q0 -27 -16.5 -43t-38.5 -16h-72q-23 0 -39 16.5t-16 42.5v19q-76 -92 -195 -92q-145 0 -227 89t-82 257zM309 317q0 -160 142 -159q172 0 172 159v375 q0 92 -49.5 133t-114.5 41q-150 0 -150 -174v-375z" />
<glyph unicode="e" horiz-adv-x="966" d="M154 317v363q0 158 95 258t263 100q143 0 236.5 -80.5t93.5 -214.5v-157q0 -96 -99 -113l-403 -76v-80q2 -68 45 -113.5t113 -45.5q82 0 119.5 45t37.5 110q0 27 14.5 42.5t30.5 17.5l15 2h63q63 0 64 -64q0 -139 -94.5 -232t-249.5 -93q-152 0 -248 94t-96 237zM340 573 l315 62v108q0 59 -42 91t-111 32q-84 0 -123 -47t-39 -123v-123z" />
<glyph unicode="f" horiz-adv-x="657" d="M154 889v59q0 23 17 40.5t42 17.5h41v100q0 156 83 242t245 86h41q25 0 42 -16.5t17 -41.5v-59q0 -23 -16.5 -39t-42.5 -16h-41q-88 0 -115 -41t-27 -115v-100h170q25 0 42.5 -17.5t17.5 -40.5v-59q0 -23 -16.5 -39t-43.5 -16h-170v-775q0 -27 -17 -43t-40 -16h-74 q-23 0 -39 16.5t-16 42.5v775h-41q-27 0 -43 16t-16 39z" />
<glyph unicode="g" horiz-adv-x="1028" d="M184 332v346q0 162 77 261t237 99q111 0 186 -75v16q4 53 57 59h76q23 0 38 -16t15 -43v-1030q0 -195 -90 -289t-243 -94q-162 0 -256.5 80t-94.5 248q0 25 17.5 42t42.5 17h59q23 0 38 -16.5t15 -42.5q0 -160 179 -160q84 0 117.5 52t33.5 163v129q-76 -92 -194 -92 q-145 0 -227.5 89t-82.5 257zM371 317q0 -160 141 -159q172 0 172 159v375q0 92 -49 133t-115 41q-150 0 -149 -174v-375z" />
<glyph unicode="h" horiz-adv-x="983" d="M174 59v1315q0 27 16.5 43.5t38.5 16.5h76q23 0 39 -16.5t16 -43.5v-422q10 27 58.5 56.5t132.5 29.5q145 0 225 -91t80 -267v-621q0 -27 -16.5 -43t-38.5 -16h-76q-23 0 -39 16.5t-16 42.5v635q0 172 -146 172q-84 0 -124 -51t-40 -121v-635q0 -27 -16 -43t-39 -16h-76 q-23 0 -39 16t-16 43z" />
<glyph unicode="i" horiz-adv-x="493" d="M174 1268v106q0 27 16.5 43.5t38.5 16.5h95q23 0 39 -16.5t16 -43.5v-106q0 -27 -16.5 -43.5t-38.5 -16.5h-95q-23 0 -39 16.5t-16 43.5zM182 59v906q0 27 16.5 43t39.5 16h75q23 0 39.5 -16.5t16.5 -42.5v-906q0 -27 -16.5 -43t-41.5 -16h-73q-23 0 -39.5 16t-16.5 43z " />
<glyph unicode="j" horiz-adv-x="546" d="M0 -317q0 23 16.5 39t42.5 16h41q88 0 115 41t27 115v1071q0 27 16 43t41 16h74q23 0 39 -16.5t16 -42.5v-1071q0 -156 -83 -242t-245 -86h-41q-27 0 -43 16.5t-16 40.5v60zM236 1268v106q0 27 16 43.5t39 16.5h94q23 0 39 -16.5t16 -43.5v-106q0 -27 -16 -43.5 t-39 -16.5h-94q-23 0 -39 16.5t-16 43.5z" />
<glyph unicode="k" d="M164 59v1315q0 27 16.5 43.5t38.5 16.5h74q23 0 40 -16.5t17 -43.5v-735l287 344q33 39 63 41h111q4 0 8 -1t15.5 -5t15.5 -12.5t0 -23.5t-21 -36l-266 -319l326 -549q15 -29 15 -48q0 -28 -34 -30h-96q-4 -1 -7 -1q-29 0 -52 44l-271 463l-94 -111v-336q0 -27 -17.5 -43 t-39.5 -16h-74q-23 0 -39 16t-16 43z" />
<glyph unicode="l" horiz-adv-x="573" d="M168 313v1061q0 27 16.5 43.5t38.5 16.5h74q23 0 40 -16.5t17 -43.5v-1061q0 -47 7.5 -76.5t40 -54t94.5 -24.5h41q27 0 43 -16.5t16 -39.5v-59q0 -23 -17.5 -40t-41.5 -17h-41q-162 0 -245 85.5t-83 241.5z" />
<glyph unicode="m" horiz-adv-x="1404" d="M164 59v906q0 27 16.5 43t38.5 16h76q23 0 39 -16.5t16 -42.5v-15q53 88 189 88q115 0 180 -98q63 98 221 98q305 0 305 -358v-621q-4 -53 -57 -59h-70q-6 0 -16 2t-26.5 16.5t-16.5 40.5v621q0 88 -24.5 137t-94.5 49q-45 0 -86 -39t-41 -88v-680q-4 -53 -57 -59h-72 q-6 0 -15.5 2t-25.5 16.5t-16 40.5v680q0 49 -29 88t-88 39q-82 0 -121 -56t-39 -130v-621q-4 -53 -59 -59h-70q-6 0 -15 2t-25.5 16t-16.5 41z" />
<glyph unicode="n" horiz-adv-x="974" d="M164 59v906q0 27 16.5 43t38.5 16h76q23 0 39 -16.5t16 -42.5v-13q18 29 70.5 57.5t120.5 28.5q145 0 225 -91t80 -267v-621q0 -27 -16.5 -43t-38.5 -16h-76q-23 0 -39.5 16.5t-16.5 42.5v635q0 172 -145 172q-84 0 -124 -51t-40 -121v-635q0 -27 -16.5 -43t-38.5 -16 h-76q-23 0 -39 16t-16 43z" />
<glyph unicode="o" horiz-adv-x="905" d="M123 352v307q0 195 91 287t253 92t253 -92t91 -287v-307q0 -172 -93 -269t-249 -97h-4q-156 0 -249 97t-93 269zM309 352q0 -195 156 -194q160 0 160 194v307q0 207 -158 207t-158 -207v-307z" />
<glyph unicode="p" horiz-adv-x="980" d="M164 -375v1340q0 27 16.5 43t38.5 16h76q23 0 39 -16.5t16 -42.5v-13q23 35 75 60.5t114 25.5q147 0 230 -92t83 -266v-346q0 -150 -86 -249t-219 -99q-59 0 -117.5 24.5t-83.5 67.5v-453q0 -27 -16.5 -43t-38.5 -16h-72q-23 0 -39 16t-16 43zM348 324q0 -74 47 -120 t125 -46q68 0 107 41t39 125v370q0 172 -154 172q-84 0 -124 -51t-40 -121v-370z" />
<glyph unicode="q" horiz-adv-x="944" d="M123 678q0 162 76.5 261t236.5 99q47 0 102.5 -21.5t84.5 -64.5v27q4 53 57 59h76q23 0 38 -16t15 -43v-1354q0 -27 -16.5 -43t-38.5 -16h-72q-23 0 -39 16.5t-16 42.5v453q-27 -41 -83.5 -66.5t-117.5 -25.5q-119 0 -211 93t-92 253v346zM309 332q0 -86 40 -130t93 -44 q84 0 132.5 59t48.5 137v338q0 92 -49.5 133t-114.5 41q-150 0 -150 -174v-360z" />
<glyph unicode="r" horiz-adv-x="585" d="M164 59v906q0 27 16.5 43t38.5 16h76q23 0 39 -16.5t16 -42.5v-13q51 51 91 68.5t126 17.5q27 0 43.5 -16t16.5 -39v-59q0 -23 -16.5 -40.5t-43.5 -17.5q-217 0 -217 -172v-635q0 -27 -16.5 -43t-38.5 -16h-76q-23 0 -39 16t-16 43z" />
<glyph unicode="s" horiz-adv-x="839" d="M102 313q0 27 14.5 42.5t28.5 17.5l15 2h59q63 0 64 -64q0 -154 147 -153q57 0 90 35.5t33 82.5q0 80 -90 134l-168 98q-156 92 -156 252q0 111 78 194.5t211 83.5q272 0 303 -229q1 -6 1 -11q0 -47 -48 -59l-59 -8q-23 -2 -43.5 12.5t-24.5 42.5q-14 86 -123 86 q-43 0 -80 -32.5t-37 -79.5q0 -63 78 -109l146 -82q193 -106 192 -293q0 -115 -85 -202.5t-220 -87.5q-94 0 -161.5 32.5t-101.5 86t-48.5 105.5t-14.5 103z" />
<glyph unicode="t" horiz-adv-x="669" d="M92 891v55q0 6 2 16.5t16.5 27t39.5 16.5h45v329q4 51 57 58h70q6 0 16 -2t26.5 -16.5t16.5 -39.5v-329h158q53 -4 59 -58v-55q0 -6 -2 -16.5t-16.5 -26.5t-40.5 -16h-158v-506q0 -156 141 -156h33q53 -2 57 -55v-58q0 -6 -2 -16t-16 -26.5t-39 -16.5h-33 q-166 0 -246.5 76t-80.5 252v506h-45q-52 4 -58 57z" />
<glyph unicode="u" horiz-adv-x="964" d="M154 346v619q0 27 16 43t39 16h76q23 0 39 -16.5t16 -42.5v-633q0 -88 46 -131t112 -43q78 0 124 45t46 129v633q0 27 16 43t39 16h76q23 0 39 -16.5t16 -42.5v-906q0 -27 -16.5 -43t-38.5 -16h-72q-23 0 -39 16.5t-16 42.5v19q-66 -92 -193 -92q-145 0 -235 97t-90 263z " />
<glyph unicode="v" horiz-adv-x="849" d="M74 965q-3 10 -3 18q0 16 10 26q15 15 44 15h90q49 0 66 -59l180 -736l176 736q16 59 65 59h91q29 0 44 -15q10 -10 10 -26q0 -8 -3 -18l-262 -902q-16 -63 -58 -63h-125q-45 0 -61 59z" />
<glyph unicode="w" horiz-adv-x="1323" d="M88 965q-3 10 -3 18q0 16 10 26q15 15 44 15h90q49 0 66 -59l129 -734l170 734q16 59 65 59h105q49 0 65 -59l170 -734l129 734q16 59 66 59h90q29 0 44 -15q10 -10 10 -26q0 -8 -3 -18l-205 -906q-16 -59 -61 -59h-139q-43 0 -58 63l-161 670l-160 -670q-14 -63 -57 -63 h-138q-45 0 -61 59z" />
<glyph unicode="x" horiz-adv-x="804" d="M55 15q-7 8 -7 19t7 25l277 490l-234 416q-14 29 0.5 44t51.5 15h55q47 0 78 -59l147 -279l158 268q35 59 78 60h55q37 0 51 -15.5t0 -44.5l-242 -426l252 -469q7 -14 7.5 -25t-7.5 -19q-14 -15 -51 -15h-47q-61 0 -90 59l-170 324l-180 -324q-31 -59 -90 -59h-48 q-37 0 -51 15z" />
<glyph unicode="y" horiz-adv-x="856" d="M47 965q-3 10 -3 18q0 16 10 26q15 15 44 15h90q49 0 66 -59l188 -701h4l191 701q16 59 65 59h91q29 0 44 -15q10 -10 10 -26q0 -8 -3 -18l-338 -1158q-39 -141 -116 -191t-212 -50q-27 0 -41 15.5t-16 29.5l-2 16v72q0 6 2 16.5t16.5 27.5t40.5 17q125 0 146 78l41 162 h-11q-25 0 -37 31z" />
<glyph unicode="z" horiz-adv-x="929" d="M111 57v52q0 16 28 63l451 680h-400q-27 0 -43 16.5t-16 38.5v60q0 25 16.5 41t42.5 16h584q25 0 42.5 -16.5t17.5 -40.5v-52q0 -16 -29 -63l-453 -680h445q27 0 43 -16.5t16 -38.5v-60q0 -25 -16.5 -41t-42.5 -16h-627q-27 0 -43 16t-16 41z" />
<glyph unicode="&#xaa;" horiz-adv-x="923" d="M113 280.5q0 122.5 56 191.5t198 103l243 60v86q0 63 -42 104t-105 41q-68 0 -102.5 -29.5t-34.5 -76.5q0 -27 -15.5 -43.5t-40.5 -16.5h-75q-25 0 -40.5 16.5t-15.5 43.5q0 125 91.5 201.5t232.5 76.5t237.5 -94t96.5 -268v-617q0 -27 -16.5 -43t-39.5 -16h-71 q-23 0 -39.5 16.5t-16.5 42.5v19q-27 -41 -85 -66.5t-119 -25.5q-123 0 -210 86t-87 208.5zM299 289q0 -51 37 -91t94 -40q76 0 128 60.5t52 133.5v103l-215 -52q-96 -22 -96 -114z" />
<glyph unicode="&#xb2;" horiz-adv-x="944" d="M113 53v84q0 23 10 43l420 531q92 117 117.5 181t25.5 163q0 106 -48 161.5t-124 55.5q-80 0 -122 -54.5t-42 -148.5q-2 -55 -63 -59h-80q-6 0 -15.5 2t-25.5 16t-16 41q0 176 98 277.5t260 101.5q190 0 283.5 -114.5t93.5 -278.5q0 -227 -156 -422l-352 -438h442 q53 -4 60 -58v-84q0 -6 -3.5 -15t-17.5 -23.5t-39 -14.5h-647q-25 0 -39 13.5t-18 27.5z" />
<glyph unicode="&#xb3;" horiz-adv-x="987" d="M123 387q0 27 14.5 41t26.5 16l14 2h82q6 0 16.5 -2t28 -16t17.5 -41q0 -100 47 -153.5t131 -53.5q86 0 135 49.5t49 178.5q0 121 -45 177t-109 56h-43q-55 4 -61 61v74q0 6 2 15.5t17.5 26t41.5 16.5h45q135 0 136 217q0 203 -166 202q-160 0 -160 -184q0 -27 -15.5 -41 t-31.5 -16l-14 -2h-80q-6 0 -15.5 2t-26 16t-16.5 41q0 176 98.5 277.5t260.5 101.5q178 0 271 -106.5t93 -290.5q0 -238 -104 -322q121 -98 121 -321q0 -197 -101.5 -308.5t-281.5 -111.5q-106 0 -185 40t-118 104.5t-56.5 128t-17.5 126.5z" />
<glyph unicode="&#xb9;" d="M92 57v80v6q0 4 3 14.5t9.5 17.5t17.5 13.5t28 6.5h270v1044h-150q-53 4 -59 57v80v6q0 4 3 14.5t9 17.5t17.5 13.5t27.5 6.5h291q53 -4 59 -60v-1179h269q51 -4 57 -58v-80q0 -6 -2 -15t-16.5 -25.5t-40.5 -16.5h-733q-54 4 -60 57z" />
<glyph unicode="&#xba;" horiz-adv-x="905" d="M123 352v307q0 195 91 287t253 92t253 -92t91 -287v-307q0 -172 -93 -269t-249 -97h-4q-156 0 -249 97t-93 269zM309 352q0 -195 156 -194q160 0 160 194v307q0 207 -158 207t-158 -207v-307z" />
<glyph unicode="&#x152;" horiz-adv-x="2213" d="M164 451v530q0 209 104.5 338t321.5 129t320.5 -129t103.5 -338v-530q0 -209 -103.5 -337t-320.5 -128t-321.5 128t-104.5 337zM362 451q0 -270 228 -271q225 0 225 271v530q0 272 -225 272q-227 0 -228 -272v-530zM1327 0v1434h723q53 -4 59 -58v-80v-6q0 -4 -3 -14 t-9 -17.5t-17.5 -13.5t-27.5 -6h-526v-420h389q53 -4 59 -57v-80v-6q0 -4 -3 -14.5t-9 -17.5t-17.5 -13t-27.5 -6h-391v-430h524q53 -4 59 -58v-80v-6q0 -4 -3 -14t-9 -17.5t-17.5 -13.5t-27.5 -6h-725z" />
<glyph unicode="&#x153;" horiz-adv-x="1871" d="M123 352v307q0 195 91 287t253 92t253 -92t91 -287v-307q0 -172 -93 -269t-249 -97h-4q-156 0 -249 97t-93 269zM309 352q0 -195 156 -194q160 0 160 194v307q0 207 -158 207t-158 -207v-307zM1059 317v363q0 158 95 258t263 100q143 0 236.5 -80.5t93.5 -214.5v-157 q0 -96 -98 -113l-404 -76v-80q2 -68 45 -113.5t113 -45.5q82 0 120 45t38 110q0 27 14 42.5t31 17.5l14 2h63q63 0 64 -64q0 -139 -94 -232t-250 -93q-152 0 -248 94t-96 237zM1245 573l316 62v108q0 59 -42 91t-112 32q-84 0 -123 -47t-39 -123v-123z" />
<glyph unicode="&#x2013;" horiz-adv-x="1024" d="M205 512v205h614v-205h-614z" />
<glyph unicode="&#x2014;" horiz-adv-x="2048" d="M205 512v205h1638v-205h-1638z" />
<glyph unicode="&#x2018;" horiz-adv-x="335" d="M84 1251l78 324q16 68 67 67h9q23 0 39 -16t16 -43v-346q0 -27 -16.5 -43t-38.5 -16h-105q-52 0 -52 47q0 11 3 26z" />
<glyph unicode="&#x2019;" horiz-adv-x="335" d="M109 1110v346q0 27 16 43.5t39 16.5h104q52 0 53 -48q0 -12 -4 -26l-77 -324q-16 -68 -68 -67h-8q-23 0 -39 16t-16 43z" />
<glyph unicode="&#x201c;" horiz-adv-x="595" d="M109 1374q0 27 14 43.5t37 16.5h86q23 0 37 -16.5t14 -43.5l-27 -231q-6 -59 -43 -60h-49q-31 0 -43 60zM395 1374q0 27 14.5 43.5t36.5 16.5h86q23 0 37.5 -16.5t14.5 -43.5l-27 -231q-6 -59 -43 -60h-49q-31 0 -43 60z" />
<glyph unicode="&#x201d;" horiz-adv-x="595" d="M109 1374q0 27 14 43.5t37 16.5h86q23 0 37 -16.5t14 -43.5l-27 -231q-6 -59 -43 -60h-49q-31 0 -43 60zM395 1374q0 27 14.5 43.5t36.5 16.5h86q23 0 37.5 -16.5t14.5 -43.5l-27 -231q-6 -59 -43 -60h-49q-31 0 -43 60z" />
<glyph unicode="&#x2026;" horiz-adv-x="1161" d="M111 59v95q0 27 16 43t39 16h102q23 0 39.5 -16.5t16.5 -42.5v-95q0 -27 -16.5 -43t-39.5 -16h-102q-23 0 -39 16t-16 43zM498 59v95q0 27 16 43t39 16h102q23 0 39.5 -16.5t16.5 -42.5v-95q0 -27 -16.5 -43t-39.5 -16h-102q-23 0 -39 16t-16 43zM885 59v95q0 27 16.5 43 t38.5 16h102q23 0 39.5 -16.5t16.5 -42.5v-95q0 -27 -16.5 -43t-39.5 -16h-102q-23 0 -39 16t-16 43z" />
<glyph unicode="&#x2039;" horiz-adv-x="708" d="M41 526v47q0 33 37 56l518 332q13 8 25 8q8 0 16 -4q18 -10 18 -33v-58q0 -51 -39 -73l-378 -250l378 -250q39 -23 39 -74v-57q0 -23 -18 -33q-8 -4 -16 -4q-12 0 -25 8l-528 338q-27 16 -27 47z" />
<glyph unicode="&#x203a;" horiz-adv-x="708" d="M113 170v57q0 51 39 74l378 250l-378 250q-39 23 -39 73v58q0 23 19 33q8 4 16 4q12 0 24 -8l518 -332q37 -23 37 -56v-47q0 -31 -27 -47l-528 -338q-12 -8 -24 -8q-8 0 -16 4q-19 10 -19 33z" />
<glyph unicode="&#x2122;" horiz-adv-x="2308" d="M102 1296v78q0 6 2 16.5t16.5 27t41.5 16.5h737q53 -4 59 -58v-78q0 -6 -2 -16t-16 -26.5t-41 -16.5h-270v-1180q-4 -53 -58 -59h-82q-6 0 -16 2t-26.5 16.5t-16.5 40.5v1180h-268q-54 4 -60 57zM1210 59v1315q0 6 2 16.5t16.5 27t41.5 16.5h121q41 0 63 -45l229 -537 l228 537q20 45 63 45h117q6 0 16.5 -2t27.5 -16.5t17 -41.5v-1315q0 -6 -2 -16t-17 -26.5t-42 -16.5h-76q-6 0 -16 2t-27.5 16.5t-17.5 40.5l20 1012l-182 -459q-18 -43 -57 -43h-93q-43 0 -61 43l-192 469l20 -1022q0 -6 -2 -16t-16.5 -26.5t-40.5 -16.5h-80q-6 0 -16.5 2 t-27 16t-16.5 41z" />
<glyph unicode="&#xe000;" horiz-adv-x="1025" d="M0 1025h1025v-1025h-1025v1025z" />
<glyph unicode="&#xfb01;" horiz-adv-x="1150" d="M154 889v59q0 23 17 40.5t42 17.5h41v100q0 156 83 242t245 86h41q25 0 42 -16.5t17 -41.5v-59q0 -23 -16.5 -39t-42.5 -16h-41q-88 0 -115 -41t-27 -115v-100h170q25 0 42.5 -17.5t17.5 -40.5v-59q0 -23 -16.5 -39t-43.5 -16h-170v-775q0 -27 -17 -43t-40 -16h-74 q-23 0 -39 16.5t-16 42.5v775h-41q-27 0 -43 16t-16 39zM831 1268v106q0 27 16.5 43.5t39.5 16.5h94q23 0 39 -16.5t16 -43.5v-106q0 -27 -16 -43.5t-39 -16.5h-94q-23 0 -39.5 16.5t-16.5 43.5zM840 59v906q0 27 16 43t39 16h76q23 0 39 -16.5t16 -42.5v-906 q0 -27 -16.5 -43t-40.5 -16h-74q-23 0 -39 16t-16 43z" />
<glyph unicode="&#xfb02;" horiz-adv-x="1230" d="M154 889v59q0 23 17 40.5t42 17.5h41v100q0 156 83 242t245 86h41q25 0 42 -16.5t17 -41.5v-59q0 -23 -16.5 -39t-42.5 -16h-41q-88 0 -115 -41t-27 -115v-100h170q25 0 42.5 -17.5t17.5 -40.5v-59q0 -23 -16.5 -39t-43.5 -16h-170v-775q0 -27 -17 -43t-40 -16h-74 q-23 0 -39 16.5t-16 42.5v775h-41q-27 0 -43 16t-16 39zM825 313v1061q0 27 16.5 43.5t39.5 16.5h73q23 0 40.5 -16.5t17.5 -43.5v-1061q0 -47 7 -76.5t40 -54t94 -24.5h41q27 0 43 -16.5t16 -39.5v-59q0 -23 -17 -40t-42 -17h-41q-162 0 -245 85.5t-83 241.5z" />
<glyph unicode="&#xfb03;" horiz-adv-x="1808" d="M154 889v59q0 23 17 40.5t42 17.5h41v100q0 156 83 242t245 86h41q25 0 42 -16.5t17 -41.5v-59q0 -23 -16.5 -39t-42.5 -16h-41q-88 0 -115 -41t-27 -115v-100h170q25 0 42.5 -17.5t17.5 -40.5v-59q0 -23 -16.5 -39t-43.5 -16h-170v-775q0 -27 -17 -43t-40 -16h-74 q-23 0 -39 16.5t-16 42.5v775h-41q-27 0 -43 16t-16 39zM811 889v59q0 23 17.5 40.5t41.5 17.5h41v100q0 156 83 242t245 86h41q25 0 42 -16.5t17 -41.5v-59q0 -23 -16 -39t-43 -16h-41q-88 0 -114.5 -41t-26.5 -115v-100h170q25 0 42 -17.5t17 -40.5v-59q0 -23 -16.5 -39 t-42.5 -16h-170v-775q0 -27 -17.5 -43t-40.5 -16h-73q-23 0 -39.5 16.5t-16.5 42.5v775h-41q-27 0 -43 16t-16 39zM1489 1268v106q0 27 16.5 43.5t38.5 16.5h94q23 0 39.5 -16.5t16.5 -43.5v-106q0 -27 -16.5 -43.5t-39.5 -16.5h-94q-23 0 -39 16.5t-16 43.5zM1497 59v906 q0 27 16.5 43t38.5 16h76q23 0 39 -16.5t16 -42.5v-906q0 -27 -16 -43t-41 -16h-74q-23 0 -39 16t-16 43z" />
<glyph unicode="&#xfb04;" horiz-adv-x="1888" d="M154 889v59q0 23 17 40.5t42 17.5h41v100q0 156 83 242t245 86h41q25 0 42 -16.5t17 -41.5v-59q0 -23 -16.5 -39t-42.5 -16h-41q-88 0 -115 -41t-27 -115v-100h170q25 0 42.5 -17.5t17.5 -40.5v-59q0 -23 -16.5 -39t-43.5 -16h-170v-775q0 -27 -17 -43t-40 -16h-74 q-23 0 -39 16.5t-16 42.5v775h-41q-27 0 -43 16t-16 39zM811 889v59q0 23 17.5 40.5t41.5 17.5h41v100q0 156 83 242t245 86h41q25 0 42 -16.5t17 -41.5v-59q0 -23 -16 -39t-43 -16h-41q-88 0 -114.5 -41t-26.5 -115v-100h170q25 0 42 -17.5t17 -40.5v-59q0 -23 -16.5 -39 t-42.5 -16h-170v-775q0 -27 -17.5 -43t-40.5 -16h-73q-23 0 -39.5 16.5t-16.5 42.5v775h-41q-27 0 -43 16t-16 39zM1483 313v1061q0 27 16.5 43.5t38.5 16.5h74q23 0 40 -16.5t17 -43.5v-1061q0 -47 7 -76.5t40 -54t94 -24.5h41q27 0 43.5 -16.5t16.5 -39.5v-59 q0 -23 -17.5 -40t-42.5 -17h-41q-162 0 -244.5 85.5t-82.5 241.5z" />
</font>
</defs>
</svg>
